<svg width="181" height="319" viewBox="0 0 181 319" fill="none" xmlns="http://www.w3.org/2000/svg">
<g filter="url(#filter0_i)">
<path d="M86 77.5424L90 0L99.5 63.7571C104.803 70.5566 109.436 72.4196 118 75.3884L96.5 73.2345V95.6356C106.928 110.964 116.305 117.291 132 129.237L96.5 106.405V127.514C105.732 139.189 110.86 143.358 120.5 151.638C107.859 145.395 105.682 147.27 95 136.561V151.638C114.392 174.556 120.963 184.593 141.5 202.903C122.11 193.079 110.908 188.265 96.5 168.008L99.5 217.98C125.563 236.312 140.444 244.467 167 258.905C140.383 248.938 125.296 243.897 101 226.165V242.535C110.45 251.682 116.976 255.367 129 261.49C116.199 259.864 108.913 259.199 99.5 249.859L101 305H86V261.49C60.9103 260.88 46.5983 258.101 21 252.443C46.926 253.451 61.3601 253.827 86 252.443V205.918L10 202.903C40.1817 201.126 57.0742 200.076 86 196.01L85 183.517C70.4633 186.394 58.4401 185.181 42.5 183.517C59.9476 181.239 73.6676 180.388 85 175.332V132.253C71.4686 137.898 58.941 134.417 42.5 131.391C60.8397 129.475 71.1805 128.485 86 121.483V86.589L49 95.6356C65.3079 89.6885 74.0313 86.1011 86 77.5424Z" fill="#553F2B"/>
<path d="M86 77.5424L90 0L99.5 63.7571C104.803 70.5566 109.436 72.4196 118 75.3884L96.5 73.2345V95.6356C106.928 110.964 116.305 117.291 132 129.237L96.5 106.405V127.514C105.732 139.189 110.86 143.358 120.5 151.638C107.859 145.395 105.682 147.27 95 136.561V151.638C114.392 174.556 120.963 184.593 141.5 202.903C122.11 193.079 110.908 188.265 96.5 168.008L99.5 217.98C125.563 236.312 140.444 244.467 167 258.905C140.383 248.938 125.296 243.897 101 226.165V242.535C110.45 251.682 116.976 255.367 129 261.49C116.199 259.864 108.913 259.199 99.5 249.859L101 305H86V261.49C60.9103 260.88 46.5983 258.101 21 252.443C46.926 253.451 61.3601 253.827 86 252.443V205.918L10 202.903C40.1817 201.126 57.0742 200.076 86 196.01L85 183.517C70.4633 186.394 58.4401 185.181 42.5 183.517C59.9476 181.239 73.6676 180.388 85 175.332V132.253C71.4686 137.898 58.941 134.417 42.5 131.391C60.8397 129.475 71.1805 128.485 86 121.483V86.589L49 95.6356C65.3079 89.6885 74.0313 86.1011 86 77.5424Z" fill="url(#paint0_linear)" fill-opacity="0.8"/>
</g>
<defs>
<filter id="filter0_i" x="10" y="0" width="157" height="309" filterUnits="userSpaceOnUse" color-interpolation-filters="sRGB">
<feFlood flood-opacity="0" result="BackgroundImageFix"/>
<feBlend mode="normal" in="SourceGraphic" in2="BackgroundImageFix" result="shape"/>
<feColorMatrix in="SourceAlpha" type="matrix" values="0 0 0 0 0 0 0 0 0 0 0 0 0 0 0 0 0 0 127 0" result="hardAlpha"/>
<feOffset dy="4"/>
<feGaussianBlur stdDeviation="5"/>
<feComposite in2="hardAlpha" operator="arithmetic" k2="-1" k3="1"/>
<feColorMatrix type="matrix" values="0 0 0 0 0 0 0 0 0 0 0 0 0 0 0 0 0 0 0.5 0"/>
<feBlend mode="normal" in2="shape" result="effect1_innerShadow"/>
</filter>
<linearGradient id="paint0_linear" x1="45" y1="286.045" x2="82.723" y2="155.137" gradientUnits="userSpaceOnUse">
<stop stop-color="#A9371E" stop-opacity="0.66"/>
<stop offset="1" stop-color="#231104" stop-opacity="0"/>
</linearGradient>
</defs>
</svg>
