<svg width="1762" height="398" viewBox="0 0 1762 398" fill="none" xmlns="http://www.w3.org/2000/svg">
<g clip-path="url(#clip0)">
<g clip-path="url(#clip1)">
<g filter="url(#filter0_f)">
<rect width="14.5284" height="12.113" transform="matrix(0.999965 -0.008311 0.0119563 0.999928 279.428 239.072)" fill="#42241B"/>
</g>
<g filter="url(#filter1_f)">
<path d="M223.218 252.436C219.758 256.196 286.426 239.599 286.426 239.599C286.426 239.599 349.799 251.757 348.923 246.168C348.047 240.579 329.534 239.012 313.847 221.463L335.864 213.818C317.986 206.878 299.66 185.018 299.66 185.018C299.66 185.018 326.218 186.716 329.579 184.77C332.941 182.824 306.331 167.801 302.022 157.017C302.022 157.017 326.924 151.889 328.787 151.945C330.649 152 297.086 127.585 297.05 124.6C297.05 124.6 332.961 129.152 313.827 118.491C294.693 107.831 294.455 65.6742 291.535 80.6219C288.615 95.5697 268.996 119.629 264.249 121.142C259.501 122.655 280.336 124.739 280.336 124.739C282.721 127.956 248.367 149.192 249.212 148.875C250.056 148.558 276.352 152.381 276.352 152.381C276.352 152.381 247.632 174.631 241.728 176.919C235.824 179.207 272.665 182.258 272.665 182.258C272.665 182.258 228.741 214.404 227.519 217.33C226.296 220.257 259.658 221.913 259.658 221.913C259.658 221.913 226.678 248.677 223.218 252.436Z" fill="#162F0E"/>
</g>
<g filter="url(#filter2_f)">
<path d="M276.784 152.955C263.838 162.956 256.109 168.318 241.561 177.474C241.561 177.474 256.078 175.151 264.151 171.413C272.225 167.676 276.784 152.955 276.784 152.955Z" fill="#1B2517"/>
</g>
<g filter="url(#filter3_f)">
<path d="M272.296 182.603C253.462 194.723 243.215 203.407 227.5 216.623C227.5 216.623 246.169 212.729 256.361 207.66C266.554 202.59 272.296 182.603 272.296 182.603Z" fill="#1B2517"/>
</g>
<g filter="url(#filter4_f)">
<path d="M259.758 221.739C242.256 235.852 235.515 240.439 223.092 253C223.092 253 241.476 249.072 251.512 243.955C261.548 238.838 259.758 221.739 259.758 221.739Z" fill="#1B2517"/>
</g>
<g filter="url(#filter5_f)">
<path d="M279.675 124.666C268.724 136.678 263.319 139.563 249.294 149.146C249.294 149.146 263.297 146.722 271.081 142.812C278.866 138.901 279.675 124.666 279.675 124.666Z" fill="#1B2517"/>
</g>
<g filter="url(#filter6_f)">
<path d="M292.025 77.4561C284.658 96.4984 277.575 111.742 263.5 122.109C263.5 122.109 271.714 118.624 279.593 114.762C287.472 110.901 292.025 77.4561 292.025 77.4561Z" fill="#1B2517"/>
</g>
</g>
<g clip-path="url(#clip2)">
<g filter="url(#filter7_di)">
<path d="M352.529 114.831L354.083 80L357.774 108.638C359.834 111.693 361.634 112.529 364.962 113.863L356.608 112.895V122.958C360.66 129.843 364.303 132.685 370.401 138.051L356.608 127.795V137.277C360.195 142.521 362.188 144.394 365.933 148.113C361.022 145.309 360.176 146.151 356.025 141.34V148.113C363.56 158.407 366.113 162.916 374.092 171.14C366.559 166.727 362.206 164.565 356.608 155.466L357.774 177.912C367.9 186.147 373.682 189.81 384 196.295C373.658 191.818 367.797 189.554 358.357 181.589V188.942C362.028 193.05 364.564 194.706 369.236 197.456C364.262 196.726 361.431 196.427 357.774 192.232L358.357 217H352.529V197.456C342.78 197.182 337.22 195.934 327.274 193.393C337.347 193.845 342.955 194.014 352.529 193.393V172.494L323 171.14C334.727 170.342 341.29 169.87 352.529 168.044L352.14 162.432C346.492 163.725 341.821 163.18 335.627 162.432C342.406 161.409 347.737 161.027 352.14 158.756V139.405C346.883 141.941 342.015 140.377 335.627 139.018C342.753 138.158 346.771 137.713 352.529 134.568V118.894L338.153 122.958C344.489 120.286 347.878 118.675 352.529 114.831Z" fill="#7E5A38"/>
<path d="M352.529 114.831L354.083 80L357.774 108.638C359.834 111.693 361.634 112.529 364.962 113.863L356.608 112.895V122.958C360.66 129.843 364.303 132.685 370.401 138.051L356.608 127.795V137.277C360.195 142.521 362.188 144.394 365.933 148.113C361.022 145.309 360.176 146.151 356.025 141.34V148.113C363.56 158.407 366.113 162.916 374.092 171.14C366.559 166.727 362.206 164.565 356.608 155.466L357.774 177.912C367.9 186.147 373.682 189.81 384 196.295C373.658 191.818 367.797 189.554 358.357 181.589V188.942C362.028 193.05 364.564 194.706 369.236 197.456C364.262 196.726 361.431 196.427 357.774 192.232L358.357 217H352.529V197.456C342.78 197.182 337.22 195.934 327.274 193.393C337.347 193.845 342.955 194.014 352.529 193.393V172.494L323 171.14C334.727 170.342 341.29 169.87 352.529 168.044L352.14 162.432C346.492 163.725 341.821 163.18 335.627 162.432C342.406 161.409 347.737 161.027 352.14 158.756V139.405C346.883 141.941 342.015 140.377 335.627 139.018C342.753 138.158 346.771 137.713 352.529 134.568V118.894L338.153 122.958C344.489 120.286 347.878 118.675 352.529 114.831Z" fill="url(#paint0_linear)"/>
</g>
</g>
<g filter="url(#filter8_di)">
<path d="M175.955 37.4237L178.427 -18L184.296 27.5706C187.573 32.4307 190.435 33.7622 195.726 35.8842L182.443 34.3446V50.3559C188.886 61.3117 194.679 65.8342 204.376 74.3729L182.443 58.0537V73.1412C188.147 81.486 191.315 84.4658 197.271 90.3842C189.461 85.9216 188.116 87.262 181.516 79.6073V90.3842C193.497 106.765 197.557 113.939 210.245 127.025C198.265 120.004 191.344 116.563 182.443 102.085L184.296 137.802C200.399 150.905 209.593 156.734 226 167.054C209.555 159.929 200.234 156.327 185.223 143.653V155.353C191.061 161.891 195.094 164.525 202.522 168.901C194.613 167.739 190.112 167.264 184.296 160.588L185.223 200H175.955V168.901C160.454 168.465 151.612 166.479 135.796 162.435C151.814 163.155 160.732 163.424 175.955 162.435V129.181L129 127.025C147.647 125.755 158.084 125.005 175.955 122.099L175.338 113.169C166.356 115.226 158.928 114.359 149.08 113.169C159.859 111.541 168.336 110.933 175.338 107.319V76.5283C166.977 80.5631 159.237 78.075 149.08 75.9124C160.411 74.5428 166.799 73.8354 175.955 68.8305V43.8898L153.096 50.3559C163.171 46.1052 168.561 43.5411 175.955 37.4237Z" fill="#584838"/>
<path d="M175.955 37.4237L178.427 -18L184.296 27.5706C187.573 32.4307 190.435 33.7622 195.726 35.8842L182.443 34.3446V50.3559C188.886 61.3117 194.679 65.8342 204.376 74.3729L182.443 58.0537V73.1412C188.147 81.486 191.315 84.4658 197.271 90.3842C189.461 85.9216 188.116 87.262 181.516 79.6073V90.3842C193.497 106.765 197.557 113.939 210.245 127.025C198.265 120.004 191.344 116.563 182.443 102.085L184.296 137.802C200.399 150.905 209.593 156.734 226 167.054C209.555 159.929 200.234 156.327 185.223 143.653V155.353C191.061 161.891 195.094 164.525 202.522 168.901C194.613 167.739 190.112 167.264 184.296 160.588L185.223 200H175.955V168.901C160.454 168.465 151.612 166.479 135.796 162.435C151.814 163.155 160.732 163.424 175.955 162.435V129.181L129 127.025C147.647 125.755 158.084 125.005 175.955 122.099L175.338 113.169C166.356 115.226 158.928 114.359 149.08 113.169C159.859 111.541 168.336 110.933 175.338 107.319V76.5283C166.977 80.5631 159.237 78.075 149.08 75.9124C160.411 74.5428 166.799 73.8354 175.955 68.8305V43.8898L153.096 50.3559C163.171 46.1052 168.561 43.5411 175.955 37.4237Z" fill="url(#paint1_linear)"/>
</g>
<g filter="url(#filter9_di)">
<path d="M1489.95 84.6271L1491.63 47L1495.62 77.9379C1497.85 81.2373 1499.8 82.1413 1503.4 83.5819L1494.36 82.5367V93.4068C1498.75 100.845 1502.69 103.915 1509.29 109.712L1494.36 98.6328V108.876C1498.24 114.541 1500.4 116.564 1504.45 120.582C1499.14 117.552 1498.22 118.462 1493.73 113.266V120.582C1501.88 131.703 1504.65 136.573 1513.28 145.458C1505.13 140.691 1500.42 138.355 1494.36 128.525L1495.62 152.774C1506.58 161.669 1512.84 165.627 1524 172.633C1512.81 167.796 1506.47 165.35 1496.25 156.746V164.689C1500.23 169.128 1502.97 170.916 1508.03 173.887C1502.64 173.098 1499.58 172.775 1495.62 168.243L1496.25 195H1489.95V173.887C1479.4 173.591 1473.39 172.243 1462.62 169.497C1473.52 169.986 1479.59 170.168 1489.95 169.497V146.921L1458 145.458C1470.69 144.595 1477.79 144.086 1489.95 142.113L1489.53 136.051C1483.42 137.447 1478.36 136.858 1471.66 136.051C1479 134.946 1484.76 134.533 1489.53 132.079V111.175C1483.84 113.914 1478.57 112.225 1471.66 110.757L1472.03 110.712C1479.51 109.811 1483.82 109.292 1489.95 105.949V89.017L1474.39 93.4068C1481.25 90.521 1484.92 88.7802 1489.95 84.6271Z" fill="#7E5A38"/>
<path d="M1489.95 84.6271L1491.63 47L1495.62 77.9379C1497.85 81.2373 1499.8 82.1413 1503.4 83.5819L1494.36 82.5367V93.4068C1498.75 100.845 1502.69 103.915 1509.29 109.712L1494.36 98.6328V108.876C1498.24 114.541 1500.4 116.564 1504.45 120.582C1499.14 117.552 1498.22 118.462 1493.73 113.266V120.582C1501.88 131.703 1504.65 136.573 1513.28 145.458C1505.13 140.691 1500.42 138.355 1494.36 128.525L1495.62 152.774C1506.58 161.669 1512.84 165.627 1524 172.633C1512.81 167.796 1506.47 165.35 1496.25 156.746V164.689C1500.23 169.128 1502.97 170.916 1508.03 173.887C1502.64 173.098 1499.58 172.775 1495.62 168.243L1496.25 195H1489.95V173.887C1479.4 173.591 1473.39 172.243 1462.62 169.497C1473.52 169.986 1479.59 170.168 1489.95 169.497V146.921L1458 145.458C1470.69 144.595 1477.79 144.086 1489.95 142.113L1489.53 136.051C1483.42 137.447 1478.36 136.858 1471.66 136.051C1479 134.946 1484.76 134.533 1489.53 132.079V111.175C1483.84 113.914 1478.57 112.225 1471.66 110.757L1472.03 110.712C1479.51 109.811 1483.82 109.292 1489.95 105.949V89.017L1474.39 93.4068C1481.25 90.521 1484.92 88.7802 1489.95 84.6271Z" fill="url(#paint2_linear)"/>
</g>
<g filter="url(#filter10_di)">
<path d="M1489.95 84.6271L1491.63 47L1495.62 77.9379C1497.85 81.2373 1499.8 82.1413 1503.4 83.5819L1494.36 82.5367V93.4068C1498.75 100.845 1502.69 103.915 1509.29 109.712L1494.36 98.6328V108.876C1498.24 114.541 1500.4 116.564 1504.45 120.582C1499.14 117.552 1498.22 118.462 1493.73 113.266V120.582C1501.88 131.703 1504.65 136.573 1513.28 145.458C1505.13 140.691 1500.42 138.355 1494.36 128.525L1495.62 152.774C1506.58 161.669 1512.84 165.627 1524 172.633C1512.81 167.796 1506.47 165.35 1496.25 156.746V164.689C1500.23 169.128 1502.97 170.916 1508.03 173.887C1502.64 173.098 1499.58 172.775 1495.62 168.243L1496.25 195H1489.95V173.887C1479.4 173.591 1473.39 172.243 1462.62 169.497C1473.52 169.986 1479.59 170.168 1489.95 169.497V146.921L1458 145.458C1470.69 144.595 1477.79 144.086 1489.95 142.113L1489.53 136.051C1483.42 137.447 1478.36 136.858 1471.66 136.051C1479 134.946 1484.76 134.533 1489.53 132.079V111.175C1483.84 113.914 1478.57 112.225 1471.66 110.757L1472.03 110.712C1479.51 109.811 1483.82 109.292 1489.95 105.949V89.017L1474.39 93.4068C1481.25 90.521 1484.92 88.7802 1489.95 84.6271Z" fill="#7E5A38"/>
<path d="M1489.95 84.6271L1491.63 47L1495.62 77.9379C1497.85 81.2373 1499.8 82.1413 1503.4 83.5819L1494.36 82.5367V93.4068C1498.75 100.845 1502.69 103.915 1509.29 109.712L1494.36 98.6328V108.876C1498.24 114.541 1500.4 116.564 1504.45 120.582C1499.14 117.552 1498.22 118.462 1493.73 113.266V120.582C1501.88 131.703 1504.65 136.573 1513.28 145.458C1505.13 140.691 1500.42 138.355 1494.36 128.525L1495.62 152.774C1506.58 161.669 1512.84 165.627 1524 172.633C1512.81 167.796 1506.47 165.35 1496.25 156.746V164.689C1500.23 169.128 1502.97 170.916 1508.03 173.887C1502.64 173.098 1499.58 172.775 1495.62 168.243L1496.25 195H1489.95V173.887C1479.4 173.591 1473.39 172.243 1462.62 169.497C1473.52 169.986 1479.59 170.168 1489.95 169.497V146.921L1458 145.458C1470.69 144.595 1477.79 144.086 1489.95 142.113L1489.53 136.051C1483.42 137.447 1478.36 136.858 1471.66 136.051C1479 134.946 1484.76 134.533 1489.53 132.079V111.175C1483.84 113.914 1478.57 112.225 1471.66 110.757L1472.03 110.712C1479.51 109.811 1483.82 109.292 1489.95 105.949V89.017L1474.39 93.4068C1481.25 90.521 1484.92 88.7802 1489.95 84.6271Z" fill="url(#paint3_linear)"/>
</g>
<path d="M1490 106C1483.57 108.954 1479.53 109.793 1472 110.636C1475.84 111.166 1478 111.135 1481.84 110.425C1486.26 109.204 1487.8 108.135 1490 106Z" fill="#1F1308"/>
<path d="M1489 132C1482.41 134.563 1479.65 133.922 1472 135.631C1475.9 136.168 1478.09 136.137 1481.99 135.417C1486.48 134.18 1486.77 134.164 1489 132Z" fill="#1F1308"/>
<path d="M1474 93C1478.76 91.0714 1484.38 88.2857 1490 84C1487.73 86.1712 1487.62 86.7857 1485.24 88.5C1482.65 90 1479.19 91.2857 1474 93Z" fill="#1F1308"/>
<path d="M1490 84C1490.46 76.2655 1490.78 64.5593 1491.57 47C1491.34 55.8758 1492.19 58.3877 1491.96 65.3955C1491.7 71.5273 1491.57 77.5198 1490 84Z" fill="#1F1308"/>
<g clip-path="url(#clip3)">
<g filter="url(#filter11_f)">
<rect width="14.5284" height="12.113" transform="matrix(0.999965 -0.008311 0.0119563 0.999928 399.428 252.072)" fill="#42241B"/>
</g>
<path d="M343.218 265.436C339.758 269.196 406.426 252.599 406.426 252.599C406.426 252.599 469.799 264.757 468.923 259.168C468.047 253.579 449.534 252.012 433.847 234.463L455.864 226.818C437.986 219.878 419.66 198.018 419.66 198.018C419.66 198.018 446.218 199.716 449.579 197.77C452.941 195.824 426.331 180.801 422.022 170.017C422.022 170.017 446.924 164.889 448.787 164.945C450.649 165 417.086 140.585 417.05 137.6C417.05 137.6 452.961 142.152 433.827 131.491C414.693 120.831 414.455 78.6742 411.535 93.6219C408.615 108.57 388.996 132.629 384.249 134.142C379.501 135.655 400.336 137.739 400.336 137.739C402.721 140.956 368.367 162.192 369.212 161.875C370.056 161.558 396.352 165.381 396.352 165.381C396.352 165.381 367.632 187.631 361.728 189.919C355.824 192.207 392.665 195.258 392.665 195.258C392.665 195.258 348.741 227.404 347.519 230.33C346.296 233.257 379.658 234.913 379.658 234.913C379.658 234.913 346.678 261.677 343.218 265.436Z" fill="#162F0E"/>
<path d="M343.218 265.436C339.758 269.196 406.426 252.599 406.426 252.599C406.426 252.599 469.799 264.757 468.923 259.168C468.047 253.579 449.534 252.012 433.847 234.463L455.864 226.818C437.986 219.878 419.66 198.018 419.66 198.018C419.66 198.018 446.218 199.716 449.579 197.77C452.941 195.824 426.331 180.801 422.022 170.017C422.022 170.017 446.924 164.889 448.787 164.945C450.649 165 417.086 140.585 417.05 137.6C417.05 137.6 452.961 142.152 433.827 131.491C414.693 120.831 414.455 78.6742 411.535 93.6219C408.615 108.57 388.996 132.629 384.249 134.142C379.501 135.655 400.336 137.739 400.336 137.739C402.721 140.956 368.367 162.192 369.212 161.875C370.056 161.558 396.352 165.381 396.352 165.381C396.352 165.381 367.632 187.631 361.728 189.919C355.824 192.207 392.665 195.258 392.665 195.258C392.665 195.258 348.741 227.404 347.519 230.33C346.296 233.257 379.658 234.913 379.658 234.913C379.658 234.913 346.678 261.677 343.218 265.436Z" fill="url(#paint4_linear)" fill-opacity="0.4"/>
<path d="M396.784 165.955C383.838 175.956 376.109 181.318 361.561 190.474C361.561 190.474 376.078 188.151 384.151 184.413C392.225 180.676 396.784 165.955 396.784 165.955Z" fill="#1B2517"/>
<path d="M392.296 195.603C373.462 207.723 363.215 216.407 347.5 229.623C347.5 229.623 366.169 225.729 376.361 220.66C386.554 215.59 392.296 195.603 392.296 195.603Z" fill="#1B2517"/>
<path d="M379.758 234.739C362.256 248.852 355.515 253.439 343.092 266C343.092 266 361.476 262.072 371.512 256.955C381.548 251.838 379.758 234.739 379.758 234.739Z" fill="#1B2517"/>
<path d="M399.675 137.666C388.724 149.678 383.319 152.563 369.294 162.146C369.294 162.146 383.297 159.722 391.081 155.812C398.866 151.901 399.675 137.666 399.675 137.666Z" fill="#1B2517"/>
<path d="M412.025 90.4561C404.658 109.498 397.575 124.742 383.5 135.109C383.5 135.109 391.714 131.624 399.593 127.762C407.472 123.901 412.025 90.4561 412.025 90.4561Z" fill="#1B2517"/>
</g>
<g clip-path="url(#clip4)">
<g filter="url(#filter12_f)">
<rect width="21.452" height="17.5502" transform="matrix(0.999967 -0.00815511 0.0121848 0.999926 88.2729 241.821)" fill="#42241B"/>
</g>
<g filter="url(#filter13_f)">
<path d="M5.27552 261.183C0.166445 266.63 98.6052 242.584 98.6052 242.584C98.6052 242.584 192.18 260.199 190.886 252.102C189.593 244.004 162.258 241.734 139.094 216.307L171.604 205.231C145.206 195.176 118.147 163.504 118.147 163.504C118.147 163.504 157.36 165.963 162.324 163.144C167.288 160.324 127.997 138.558 121.633 122.934C121.633 122.934 158.404 115.505 161.154 115.585C163.904 115.665 114.346 80.2902 114.293 75.9662C114.293 75.9662 167.318 82.561 139.065 67.1154C110.812 51.6699 110.461 -9.40957 106.149 12.2477C101.837 33.9049 72.8688 68.7631 65.8591 70.9557C58.8494 73.1484 89.6128 76.1675 89.6128 76.1675C93.1347 80.8288 42.4092 111.597 43.6564 111.138C44.9036 110.678 83.731 116.216 83.731 116.216C83.731 116.216 41.3243 148.455 32.6063 151.769C23.8883 155.083 78.2868 159.505 78.2868 159.505C78.2868 159.505 13.4303 206.08 11.6251 210.32C9.81996 214.56 59.0814 216.96 59.0814 216.96C59.0814 216.96 10.3846 255.736 5.27552 261.183Z" fill="#162F0E"/>
</g>
<g filter="url(#filter14_f)">
<path d="M84.3688 117.048C65.2533 131.539 53.8403 139.307 32.36 152.574C32.36 152.574 53.7951 149.208 65.7158 143.792C77.6365 138.377 84.3688 117.048 84.3688 117.048Z" fill="#1D251A"/>
</g>
<g filter="url(#filter15_f)">
<path d="M77.741 160.004C49.9328 177.565 34.8012 190.147 11.5977 209.295C11.5977 209.295 39.1631 203.653 54.2129 196.308C69.2627 188.963 77.741 160.004 77.741 160.004Z" fill="#1D251A"/>
</g>
<g filter="url(#filter16_f)">
<path d="M59.2285 216.707C33.3863 237.156 23.4321 243.8 5.08885 262C5.08885 262 32.2339 256.309 47.0529 248.895C61.872 241.481 59.2285 216.707 59.2285 216.707Z" fill="#1D251A"/>
</g>
<g filter="url(#filter17_f)">
<path d="M88.6366 76.062C72.467 93.4659 64.4871 97.6453 43.7783 111.529C43.7783 111.529 64.4535 108.018 75.948 102.352C87.4425 96.6868 88.6366 76.062 88.6366 76.062Z" fill="#1D251A"/>
</g>
<g filter="url(#filter18_f)">
<path d="M106.873 7.66084C95.9948 35.2505 85.5372 57.3366 64.7544 72.3566C64.7544 72.3566 76.8823 67.3075 88.516 61.7125C100.15 56.1174 106.873 7.66084 106.873 7.66084Z" fill="#1D251A"/>
</g>
</g>
<rect x="194" y="297" width="22" height="20" fill="#42241B"/>
<g filter="url(#filter19_i)">
<path d="M106.208 318.087C100.725 324.142 205.335 298.103 205.335 298.103C205.335 298.103 304.253 318.692 302.988 309.609C301.723 300.525 272.789 297.732 248.574 269.036L283.163 256.924C255.323 245.419 227.061 209.69 227.061 209.69C227.061 209.69 268.578 212.803 273.874 209.69C279.169 206.577 237.82 181.834 231.279 164.273C231.279 164.273 270.335 156.286 273.247 156.4C276.16 156.515 224.108 116.433 224.108 111.589C224.108 111.589 280.205 119.461 250.469 101.9C220.734 84.3382 221.15 15.9091 216.302 40.1318C211.454 64.3545 180.311 103.141 172.855 105.533C165.4 107.925 197.956 111.589 197.956 111.589C201.627 116.843 147.484 150.848 148.812 150.345C150.139 149.841 191.207 156.4 191.207 156.4C191.207 156.4 145.859 192.129 136.579 195.762C127.299 199.396 184.88 204.846 184.88 204.846C184.88 204.846 115.56 256.43 113.593 261.163C111.625 265.897 163.789 269.036 163.789 269.036C163.789 269.036 111.692 312.031 106.208 318.087Z" fill="#162F0E"/>
<path d="M106.208 318.087C100.725 324.142 205.335 298.103 205.335 298.103C205.335 298.103 304.253 318.692 302.988 309.609C301.723 300.525 272.789 297.732 248.574 269.036L283.163 256.924C255.323 245.419 227.061 209.69 227.061 209.69C227.061 209.69 268.578 212.803 273.874 209.69C279.169 206.577 237.82 181.834 231.279 164.273C231.279 164.273 270.335 156.286 273.247 156.4C276.16 156.515 224.108 116.433 224.108 111.589C224.108 111.589 280.205 119.461 250.469 101.9C220.734 84.3382 221.15 15.9091 216.302 40.1318C211.454 64.3545 180.311 103.141 172.855 105.533C165.4 107.925 197.956 111.589 197.956 111.589C201.627 116.843 147.484 150.848 148.812 150.345C150.139 149.841 191.207 156.4 191.207 156.4C191.207 156.4 145.859 192.129 136.579 195.762C127.299 199.396 184.88 204.846 184.88 204.846C184.88 204.846 115.56 256.43 113.593 261.163C111.625 265.897 163.789 269.036 163.789 269.036C163.789 269.036 111.692 312.031 106.208 318.087Z" fill="url(#paint5_linear)" fill-opacity="0.3"/>
</g>
<path d="M191 156C170.767 172.743 158.698 181.708 136 197C136 197 158.524 193.273 171.095 187.061C183.667 180.848 191 156 191 156Z" fill="#1B2517"/>
<path d="M183 206C154.031 225.556 138.229 239.611 114 261C114 261 142.568 254.889 158.219 246.741C173.87 238.593 183 206 183 206Z" fill="#1B2517"/>
<path d="M163.858 269C136.256 291.561 125.64 298.878 106 319C106 319 134.79 312.902 150.563 304.772C166.336 296.642 163.858 269 163.858 269Z" fill="#1B2517"/>
<path d="M198 113C180.277 131.698 171.588 136.152 149 151C149 151 171.415 147.381 183.926 141.349C196.436 135.317 198 113 198 113Z" fill="#1B2517"/>
<path d="M218 35C205.977 64.9145 194.477 88.8462 172 105C172 105 185.068 99.6154 197.614 93.6325C210.159 87.6496 218 35 218 35Z" fill="#1B2517"/>
<g clip-path="url(#clip5)">
<g filter="url(#filter20_f)">
<rect width="18.9547" height="16.4329" transform="matrix(-0.999963 -0.00864205 -0.0114983 0.999934 1443.77 262.105)" fill="#42241B"/>
</g>
<path d="M1517.02 280.234C1521.53 285.333 1434.56 262.84 1434.56 262.84C1434.56 262.84 1351.88 279.355 1353.02 271.772C1354.17 264.189 1378.32 262.058 1398.8 238.245L1359 232.61C1382.33 223.189 1417.32 188.798 1417.32 188.798C1417.32 188.798 1382.67 191.11 1378.29 188.471C1373.9 185.832 1408.63 165.443 1414.25 150.812C1414.25 150.812 1390.62 144.452 1388.19 144.528C1385.76 144.604 1420.71 110.881 1420.75 106.832C1420.75 106.832 1373.9 113.019 1398.87 98.5503C1423.84 84.0817 1434.65 26.0441 1438.45 46.3217C1442.26 66.5993 1457.36 100.078 1463.55 102.13C1469.74 104.181 1442.56 107.015 1442.56 107.015C1439.45 111.38 1481.92 144.935 1480.82 144.505C1479.72 144.075 1447.75 144.513 1447.75 144.513C1447.75 144.513 1485.21 174.69 1492.91 177.791C1500.61 180.893 1452.54 185.045 1452.54 185.045C1452.54 185.045 1509.83 228.64 1511.43 232.61C1513.02 236.58 1469.49 238.838 1469.49 238.838C1469.49 238.838 1512.51 275.135 1517.02 280.234Z" fill="#162F0E"/>
<path d="M1517.02 280.234C1521.53 285.333 1434.56 262.84 1434.56 262.84C1434.56 262.84 1351.88 279.355 1353.02 271.772C1354.17 264.189 1378.32 262.058 1398.8 238.245L1359 232.61C1382.33 223.189 1417.32 188.798 1417.32 188.798C1417.32 188.798 1382.67 191.11 1378.29 188.471C1373.9 185.832 1408.63 165.443 1414.25 150.812C1414.25 150.812 1390.62 144.452 1388.19 144.528C1385.76 144.604 1420.71 110.881 1420.75 106.832C1420.75 106.832 1373.9 113.019 1398.87 98.5503C1423.84 84.0817 1434.65 26.0441 1438.45 46.3217C1442.26 66.5993 1457.36 100.078 1463.55 102.13C1469.74 104.181 1442.56 107.015 1442.56 107.015C1439.45 111.38 1481.92 144.935 1480.82 144.505C1479.72 144.075 1447.75 144.513 1447.75 144.513C1447.75 144.513 1485.21 174.69 1492.91 177.791C1500.61 180.893 1452.54 185.045 1452.54 185.045C1452.54 185.045 1509.83 228.64 1511.43 232.61C1513.02 236.58 1469.49 238.838 1469.49 238.838C1469.49 238.838 1512.51 275.135 1517.02 280.234Z" fill="url(#paint6_linear)" fill-opacity="0.2"/>
<path d="M1448 143C1464.6 157.497 1474.51 165.268 1493.17 178.539C1493.17 178.539 1474.54 175.183 1464.19 169.768C1453.83 164.352 1448 143 1448 143Z" fill="#1B2517"/>
<path d="M1453.07 185.496C1477.64 201.939 1491.01 213.72 1511.52 231.65C1511.52 231.65 1487.16 226.367 1473.86 219.49C1460.57 212.612 1453.07 185.496 1453.07 185.496Z" fill="#1B2517"/>
<path d="M1469.43 238.59C1492.27 257.737 1501.06 263.959 1517.27 281C1517.27 281 1493.28 275.671 1480.19 268.729C1467.1 261.787 1469.43 238.59 1469.43 238.59Z" fill="#1B2517"/>
<path d="M1442 108C1456.06 125.281 1463 129.428 1481.01 143.21C1481.01 143.21 1463.02 139.733 1453.02 134.111C1443.02 128.489 1442 108 1442 108Z" fill="#1B2517"/>
<path d="M1438.1 42.0008C1446.84 68.7066 1447.79 88.9027 1464.55 103.428C1464.55 103.428 1454.77 98.5499 1445.39 93.1427C1436 87.7356 1438.1 42.0008 1438.1 42.0008Z" fill="#1B2517"/>
</g>
<g clip-path="url(#clip6)">
<g filter="url(#filter21_i)">
<path d="M766.955 46.4237L769.427 -9L775.296 36.5706C778.573 41.4307 781.435 42.7622 786.726 44.8842L773.443 43.3446V59.3559C779.886 70.3117 785.679 74.8342 795.376 83.3729L773.443 67.0537V82.1412C779.147 90.486 782.315 93.4658 788.271 99.3842C780.461 94.9216 779.116 96.262 772.516 88.6073V99.3842C784.497 115.765 788.557 122.939 801.245 136.025C789.265 129.004 782.344 125.563 773.443 111.085L775.296 146.802C791.399 159.905 800.593 165.734 817 176.054C800.555 168.929 791.234 165.327 776.223 152.653V164.353C782.061 170.891 786.094 173.525 793.522 177.901C785.613 176.739 781.112 176.264 775.296 169.588L776.223 209H766.955V177.901C751.454 177.465 742.612 175.479 726.796 171.435C742.814 172.155 751.732 172.424 766.955 171.435V138.181L720 136.025C738.647 134.755 749.084 134.005 766.955 131.099L766.338 122.169C757.356 124.226 749.928 123.359 740.08 122.169C750.859 120.541 759.336 119.933 766.338 116.319V85.5283C757.977 89.5631 750.237 87.075 740.08 84.9124C751.411 83.5428 757.799 82.8354 766.955 77.8305V52.8898L744.096 59.3559C754.171 55.1052 759.561 52.5411 766.955 46.4237Z" fill="#7E5A38"/>
</g>
<path d="M767 78C757.348 82.1357 751.302 83.3103 740 84.4903C745.763 85.232 748.993 85.1897 754.756 84.1953C761.386 82.486 763.701 80.9892 767 78Z" fill="#4A341F"/>
<path d="M765 117C755.312 120.845 751.25 119.883 740 122.446C745.736 123.252 748.952 123.206 754.688 122.126C761.287 120.27 761.717 120.246 765 117Z" fill="#4A341F"/>
<path d="M744 59C750.838 56.2143 758.919 52.1905 767 46C763.734 49.1362 763.581 50.0238 760.162 52.5C756.432 54.6667 751.459 56.5238 744 59Z" fill="#4A341F"/>
<path d="M767 46C767.687 34.7119 768.175 17.6271 769.351 -8C769.017 4.9538 770.288 8.61986 769.939 18.8475C769.557 27.7966 769.351 36.5424 767 46Z" fill="#4A341F"/>
</g>
<g clip-path="url(#clip7)">
<g filter="url(#filter22_f)">
<rect width="14.5284" height="12.113" transform="matrix(0.999965 -0.008311 0.0119563 0.999928 622.428 205.072)" fill="#42241B"/>
</g>
<g filter="url(#filter23_f)">
<path d="M566.218 218.436C562.758 222.196 629.426 205.599 629.426 205.599C629.426 205.599 692.799 217.757 691.923 212.168C691.047 206.579 672.534 205.012 656.847 187.463L678.864 179.818C660.986 172.878 642.66 151.018 642.66 151.018C642.66 151.018 669.218 152.716 672.579 150.77C675.941 148.824 649.331 133.801 645.022 123.017C645.022 123.017 669.924 117.889 671.787 117.945C673.649 118 640.086 93.5846 640.05 90.6002C640.05 90.6002 675.961 95.1519 656.827 84.4914C637.693 73.831 637.455 31.6742 634.535 46.6219C631.615 61.5697 611.996 85.6287 607.249 87.142C602.501 88.6553 623.336 90.7391 623.336 90.7391C625.721 93.9563 591.367 115.192 592.212 114.875C593.056 114.558 619.352 118.381 619.352 118.381C619.352 118.381 590.632 140.631 584.728 142.919C578.824 145.207 615.665 148.258 615.665 148.258C615.665 148.258 571.741 180.404 570.519 183.33C569.296 186.257 602.658 187.913 602.658 187.913C602.658 187.913 569.678 214.677 566.218 218.436Z" fill="#162F0E"/>
</g>
<g filter="url(#filter24_f)">
<path d="M619.784 118.955C606.838 128.956 599.109 134.318 584.561 143.474C584.561 143.474 599.078 141.151 607.151 137.413C615.225 133.676 619.784 118.955 619.784 118.955Z" fill="#1B2517"/>
</g>
<g filter="url(#filter25_f)">
<path d="M615.296 148.603C596.462 160.723 586.215 169.407 570.5 182.623C570.5 182.623 589.169 178.729 599.361 173.66C609.554 168.59 615.296 148.603 615.296 148.603Z" fill="#1B2517"/>
</g>
<g filter="url(#filter26_f)">
<path d="M602.758 187.739C585.256 201.852 578.515 206.439 566.092 219C566.092 219 584.476 215.072 594.512 209.955C604.548 204.838 602.758 187.739 602.758 187.739Z" fill="#1B2517"/>
</g>
<g filter="url(#filter27_f)">
<path d="M622.675 90.6663C611.724 102.678 606.319 105.563 592.294 115.146C592.294 115.146 606.297 112.722 614.081 108.812C621.866 104.901 622.675 90.6663 622.675 90.6663Z" fill="#1B2517"/>
</g>
<g filter="url(#filter28_f)">
<path d="M635.025 43.4561C627.658 62.4984 620.575 77.7421 606.5 88.1089C606.5 88.1089 614.714 84.624 622.593 80.7623C630.472 76.9006 635.025 43.4561 635.025 43.4561Z" fill="#1B2517"/>
</g>
</g>
<g clip-path="url(#clip8)">
<g filter="url(#filter29_f)">
<rect width="14.5284" height="12.113" transform="matrix(-0.998751 0.0499562 0.046315 0.998927 1289.57 184.242)" fill="#42241B"/>
</g>
<g filter="url(#filter30_f)">
<path d="M1346 194C1349.17 198.005 1283.33 185.226 1283.33 185.226C1283.33 185.226 1225.21 202.009 1226.5 196.5C1227.79 190.991 1240.39 181.459 1257.33 165.115L1238 160.5C1256.34 154.898 1274.16 129.817 1274.16 129.817C1274.16 129.817 1250.77 133.689 1247.56 131.5C1244.35 129.311 1268.78 112.155 1273.88 101.718C1273.88 101.718 1249.42 94.7664 1247.56 94.6841C1245.7 94.6019 1280.97 72.7303 1281.23 69.7567C1281.23 69.7567 1245.08 71.6453 1264.95 62.4262C1284.81 53.2072 1288.16 11.1829 1289.97 26.3054C1291.78 41.428 1309.57 66.8694 1314.19 68.7291C1318.82 70.5887 1297.88 71.129 1297.88 71.129C1295.27 74.1613 1327.96 97.8752 1327.14 97.4966C1326.32 97.118 1299.82 98.989 1299.82 98.989C1299.82 98.989 1326.82 123.299 1332.54 126.016C1338.25 128.733 1301.29 129.057 1301.29 129.057C1301.29 129.057 1342.72 164.357 1343.72 167.366C1344.73 170.375 1311.33 169.564 1311.33 169.564C1311.33 169.564 1342.83 189.995 1346 194Z" fill="#162F0E"/>
<path d="M1346 194C1349.17 198.005 1283.33 185.226 1283.33 185.226C1283.33 185.226 1225.21 202.009 1226.5 196.5C1227.79 190.991 1240.39 181.459 1257.33 165.115L1238 160.5C1256.34 154.898 1274.16 129.817 1274.16 129.817C1274.16 129.817 1250.77 133.689 1247.56 131.5C1244.35 129.311 1268.78 112.155 1273.88 101.718C1273.88 101.718 1249.42 94.7664 1247.56 94.6841C1245.7 94.6019 1280.97 72.7303 1281.23 69.7567C1281.23 69.7567 1245.08 71.6453 1264.95 62.4262C1284.81 53.2072 1288.16 11.1829 1289.97 26.3054C1291.78 41.428 1309.57 66.8694 1314.19 68.7291C1318.82 70.5887 1297.88 71.129 1297.88 71.129C1295.27 74.1613 1327.96 97.8752 1327.14 97.4966C1326.32 97.118 1299.82 98.989 1299.82 98.989C1299.82 98.989 1326.82 123.299 1332.54 126.016C1338.25 128.733 1301.29 129.057 1301.29 129.057C1301.29 129.057 1342.72 164.357 1343.72 167.366C1344.73 170.375 1311.33 169.564 1311.33 169.564C1311.33 169.564 1342.83 189.995 1346 194Z" fill="url(#paint7_linear)" fill-opacity="0.1"/>
</g>
<g filter="url(#filter31_f)">
<path d="M1299.34 99.5299C1311.52 110.459 1318.83 116.377 1332.66 126.582C1332.66 126.582 1318.35 123.194 1310.58 118.871C1302.8 114.547 1299.34 99.5299 1299.34 99.5299Z" fill="#1B2517"/>
</g>
<g filter="url(#filter32_f)">
<path d="M1301.63 129.428C1319.52 142.905 1329.1 152.322 1343.79 166.662C1343.79 166.662 1325.46 161.401 1315.67 155.593C1305.88 149.785 1301.63 129.428 1301.63 129.428Z" fill="#1B2517"/>
</g>
<g filter="url(#filter33_f)">
<path d="M1311.25 169.383C1329 182.5 1329.5 183 1345.5 194C1345.5 194 1327.46 197.991 1317.83 192.147C1308.2 186.303 1311.25 169.383 1311.25 169.383Z" fill="#1B2517"/>
</g>
<g filter="url(#filter34_f)">
<path d="M1298.55 71.1051C1308.58 83.8928 1313.76 87.1684 1327.04 97.76C1327.04 97.76 1313.25 94.3094 1305.78 89.8353C1298.3 85.3611 1298.55 71.1051 1298.55 71.1051Z" fill="#1B2517"/>
</g>
<g filter="url(#filter35_f)">
<path d="M1289.72 23.1121C1295.66 42.6462 1301.6 58.3711 1314.87 69.7485C1314.87 69.7485 1306.93 65.6669 1299.36 61.2342C1291.79 56.8015 1289.72 23.1121 1289.72 23.1121Z" fill="#1B2517"/>
</g>
</g>
<g clip-path="url(#clip9)">
<g filter="url(#filter36_f)">
<rect width="14.5284" height="12.113" transform="matrix(-0.999965 -0.008311 -0.0119563 0.999928 1701.57 232.072)" fill="#42241B"/>
</g>
<g filter="url(#filter37_f)">
<path d="M1757.78 245.436C1761.24 249.196 1694.57 232.599 1694.57 232.599C1694.57 232.599 1631.2 244.757 1632.08 239.168C1632.95 233.579 1651.47 232.012 1667.15 214.463L1645.14 206.818C1663.01 199.878 1681.34 178.018 1681.34 178.018C1681.34 178.018 1654.78 179.716 1651.42 177.77C1648.06 175.824 1674.67 160.801 1678.98 150.017C1678.98 150.017 1654.08 144.889 1652.21 144.945C1650.35 145 1683.91 120.585 1683.95 117.6C1683.95 117.6 1648.04 122.152 1667.17 111.491C1686.31 100.831 1686.54 58.6742 1689.47 73.6219C1692.39 88.5697 1712 112.629 1716.75 114.142C1721.5 115.655 1700.66 117.739 1700.66 117.739C1698.28 120.956 1732.63 142.192 1731.79 141.875C1730.94 141.558 1704.65 145.381 1704.65 145.381C1704.65 145.381 1733.37 167.631 1739.27 169.919C1745.18 172.207 1708.33 175.258 1708.33 175.258C1708.33 175.258 1752.26 207.404 1753.48 210.33C1754.7 213.257 1721.34 214.913 1721.34 214.913C1721.34 214.913 1754.32 241.677 1757.78 245.436Z" fill="#162F0E"/>
</g>
<g filter="url(#filter38_f)">
<path d="M1704.22 145.955C1717.16 155.956 1724.89 161.318 1739.44 170.474C1739.44 170.474 1724.92 168.151 1716.85 164.413C1708.78 160.676 1704.22 145.955 1704.22 145.955Z" fill="#1B2517"/>
</g>
<g filter="url(#filter39_f)">
<path d="M1708.7 175.603C1727.54 187.723 1737.79 196.407 1753.5 209.623C1753.5 209.623 1734.83 205.729 1724.64 200.66C1714.45 195.59 1708.7 175.603 1708.7 175.603Z" fill="#1B2517"/>
</g>
<g filter="url(#filter40_f)">
<path d="M1721.24 214.739C1738.74 228.852 1745.49 233.439 1757.91 246C1757.91 246 1739.52 242.072 1729.49 236.955C1719.45 231.838 1721.24 214.739 1721.24 214.739Z" fill="#1B2517"/>
</g>
<g filter="url(#filter41_f)">
<path d="M1701.33 117.666C1712.28 129.678 1717.68 132.563 1731.71 142.146C1731.71 142.146 1717.7 139.722 1709.92 135.812C1702.13 131.901 1701.33 117.666 1701.33 117.666Z" fill="#1B2517"/>
</g>
<g filter="url(#filter42_f)">
<path d="M1688.98 70.4561C1696.34 89.4984 1703.42 104.742 1717.5 115.109C1717.5 115.109 1709.29 111.624 1701.41 107.762C1693.53 103.901 1688.98 70.4561 1688.98 70.4561Z" fill="#1B2517"/>
</g>
</g>
<g clip-path="url(#clip10)">
<g filter="url(#filter43_f)">
<rect width="14.5284" height="12.113" transform="matrix(-0.999965 -0.008311 -0.0119563 0.999928 1559.57 189.072)" fill="#42241B"/>
</g>
<g filter="url(#filter44_f)">
<path d="M1615.78 202.436C1619.24 206.196 1552.57 189.599 1552.57 189.599C1552.57 189.599 1489.2 201.757 1490.08 196.168C1490.95 190.579 1509.47 189.012 1525.15 171.463L1503.14 163.818C1521.01 156.878 1539.34 135.018 1539.34 135.018C1539.34 135.018 1512.78 136.716 1509.42 134.77C1506.06 132.824 1532.67 117.801 1536.98 107.017C1536.98 107.017 1512.08 101.889 1510.21 101.945C1508.35 102 1541.91 77.5846 1541.95 74.6002C1541.95 74.6002 1506.04 79.1519 1525.17 68.4914C1544.31 57.831 1544.54 15.6742 1547.47 30.6219C1550.39 45.5697 1570 69.6287 1574.75 71.142C1579.5 72.6553 1558.66 74.7391 1558.66 74.7391C1556.28 77.9563 1590.63 99.1924 1589.79 98.8753C1588.94 98.5582 1562.65 102.381 1562.65 102.381C1562.65 102.381 1591.37 124.631 1597.27 126.919C1603.18 129.207 1566.33 132.258 1566.33 132.258C1566.33 132.258 1610.26 164.404 1611.48 167.33C1612.7 170.257 1579.34 171.913 1579.34 171.913C1579.34 171.913 1612.32 198.677 1615.78 202.436Z" fill="#162F0E"/>
</g>
<g filter="url(#filter45_f)">
<path d="M1562.22 102.955C1575.16 112.956 1582.89 118.318 1597.44 127.474C1597.44 127.474 1582.92 125.151 1574.85 121.413C1566.78 117.676 1562.22 102.955 1562.22 102.955Z" fill="#1B2517"/>
</g>
<g filter="url(#filter46_f)">
<path d="M1566.7 132.603C1585.54 144.723 1595.79 153.407 1611.5 166.623C1611.5 166.623 1592.83 162.729 1582.64 157.66C1572.45 152.59 1566.7 132.603 1566.7 132.603Z" fill="#1B2517"/>
</g>
<g filter="url(#filter47_f)">
<path d="M1579.24 171.739C1596.74 185.852 1603.49 190.439 1615.91 203C1615.91 203 1597.52 199.072 1587.49 193.955C1577.45 188.838 1579.24 171.739 1579.24 171.739Z" fill="#1B2517"/>
</g>
<g filter="url(#filter48_f)">
<path d="M1559.33 74.6663C1570.28 86.6784 1575.68 89.563 1589.71 99.1456C1589.71 99.1456 1575.7 96.7219 1567.92 92.8117C1560.13 88.9015 1559.33 74.6663 1559.33 74.6663Z" fill="#1B2517"/>
</g>
<g filter="url(#filter49_f)">
<path d="M1546.97 27.4561C1554.34 46.4984 1561.42 61.7421 1575.5 72.1089C1575.5 72.1089 1567.29 68.624 1559.41 64.7623C1551.53 60.9006 1546.97 27.4561 1546.97 27.4561Z" fill="#1B2517"/>
</g>
</g>
<g filter="url(#filter50_di)">
<path d="M490.955 49.4237L493.427 -6L499.296 39.5706C502.573 44.4307 505.435 45.7622 510.726 47.8842L497.443 46.3446V62.3559C503.886 73.3117 509.679 77.8342 519.376 86.3729L497.443 70.0537V85.1412C503.147 93.486 506.315 96.4658 512.271 102.384C504.461 97.9216 503.116 99.262 496.516 91.6073V102.384C508.497 118.765 512.557 125.939 525.245 139.025C513.265 132.004 506.344 128.563 497.443 114.085L499.296 149.802C515.399 162.905 524.593 168.734 541 179.054C524.555 171.929 515.234 168.327 500.223 155.653V167.353C506.061 173.891 510.094 176.525 517.522 180.901C509.613 179.739 505.112 179.264 499.296 172.588L500.223 212H490.955V180.901C475.454 180.465 466.612 178.479 450.796 174.435C466.814 175.155 475.732 175.424 490.955 174.435V141.181L444 139.025C462.647 137.755 473.084 137.005 490.955 134.099L490.338 125.169C481.356 127.226 473.928 126.359 464.08 125.169C474.859 123.541 483.336 122.933 490.338 119.319V88.5283C481.977 92.5631 474.237 90.075 464.08 87.9124C475.411 86.5428 481.799 85.8354 490.955 80.8305V55.8898L468.096 62.3559C478.171 58.1052 483.561 55.5411 490.955 49.4237Z" fill="#7E5A38"/>
<path d="M490.955 49.4237L493.427 -6L499.296 39.5706C502.573 44.4307 505.435 45.7622 510.726 47.8842L497.443 46.3446V62.3559C503.886 73.3117 509.679 77.8342 519.376 86.3729L497.443 70.0537V85.1412C503.147 93.486 506.315 96.4658 512.271 102.384C504.461 97.9216 503.116 99.262 496.516 91.6073V102.384C508.497 118.765 512.557 125.939 525.245 139.025C513.265 132.004 506.344 128.563 497.443 114.085L499.296 149.802C515.399 162.905 524.593 168.734 541 179.054C524.555 171.929 515.234 168.327 500.223 155.653V167.353C506.061 173.891 510.094 176.525 517.522 180.901C509.613 179.739 505.112 179.264 499.296 172.588L500.223 212H490.955V180.901C475.454 180.465 466.612 178.479 450.796 174.435C466.814 175.155 475.732 175.424 490.955 174.435V141.181L444 139.025C462.647 137.755 473.084 137.005 490.955 134.099L490.338 125.169C481.356 127.226 473.928 126.359 464.08 125.169C474.859 123.541 483.336 122.933 490.338 119.319V88.5283C481.977 92.5631 474.237 90.075 464.08 87.9124C475.411 86.5428 481.799 85.8354 490.955 80.8305V55.8898L468.096 62.3559C478.171 58.1052 483.561 55.5411 490.955 49.4237Z" fill="url(#paint8_linear)"/>
</g>
<g filter="url(#filter51_i)">
<path d="M490.955 49.4237L493.427 -6L499.296 39.5706C502.573 44.4307 505.435 45.7622 510.726 47.8842L497.443 46.3446V62.3559C503.886 73.3117 509.679 77.8342 519.376 86.3729L497.443 70.0537V85.1412C503.147 93.486 506.315 96.4658 512.271 102.384C504.461 97.9216 503.116 99.262 496.516 91.6073V102.384C508.497 118.765 512.557 125.939 525.245 139.025C513.265 132.004 506.344 128.563 497.443 114.085L499.296 149.802C515.399 162.905 524.593 168.734 541 179.054C524.555 171.929 515.234 168.327 500.223 155.653V167.353C506.061 173.891 510.094 176.525 517.522 180.901C509.613 179.739 505.112 179.264 499.296 172.588L500.223 212H490.955V180.901C475.454 180.465 466.612 178.479 450.796 174.435C466.814 175.155 475.732 175.424 490.955 174.435V141.181L444 139.025C462.647 137.755 473.084 137.005 490.955 134.099L490.338 125.169C481.356 127.226 473.928 126.359 464.08 125.169C474.859 123.541 483.336 122.933 490.338 119.319V88.5283C481.977 92.5631 474.237 90.075 464.08 87.9124C475.411 86.5428 481.799 85.8354 490.955 80.8305V55.8898L468.096 62.3559C478.171 58.1052 483.561 55.5411 490.955 49.4237Z" fill="#7E5A38"/>
<path d="M490.955 49.4237L493.427 -6L499.296 39.5706C502.573 44.4307 505.435 45.7622 510.726 47.8842L497.443 46.3446V62.3559C503.886 73.3117 509.679 77.8342 519.376 86.3729L497.443 70.0537V85.1412C503.147 93.486 506.315 96.4658 512.271 102.384C504.461 97.9216 503.116 99.262 496.516 91.6073V102.384C508.497 118.765 512.557 125.939 525.245 139.025C513.265 132.004 506.344 128.563 497.443 114.085L499.296 149.802C515.399 162.905 524.593 168.734 541 179.054C524.555 171.929 515.234 168.327 500.223 155.653V167.353C506.061 173.891 510.094 176.525 517.522 180.901C509.613 179.739 505.112 179.264 499.296 172.588L500.223 212H490.955V180.901C475.454 180.465 466.612 178.479 450.796 174.435C466.814 175.155 475.732 175.424 490.955 174.435V141.181L444 139.025C462.647 137.755 473.084 137.005 490.955 134.099L490.338 125.169C481.356 127.226 473.928 126.359 464.08 125.169C474.859 123.541 483.336 122.933 490.338 119.319V88.5283C481.977 92.5631 474.237 90.075 464.08 87.9124C475.411 86.5428 481.799 85.8354 490.955 80.8305V55.8898L468.096 62.3559C478.171 58.1052 483.561 55.5411 490.955 49.4237Z" fill="url(#paint9_linear)"/>
</g>
<path d="M491 81C481.348 85.1357 475.302 86.3103 464 87.4903C469.763 88.232 472.993 88.1897 478.756 87.1953C485.386 85.486 487.701 83.9892 491 81Z" fill="#1F1308"/>
<path d="M489 120C479.312 123.845 475.25 122.883 464 125.446C469.736 126.252 472.952 126.206 478.688 125.126C485.287 123.27 485.717 123.246 489 120Z" fill="#1F1308"/>
<path d="M468 62C474.838 59.2143 482.919 55.1905 491 49C487.734 52.1362 487.581 53.0238 484.162 55.5C480.432 57.6667 475.459 59.5238 468 62Z" fill="#1F1308"/>
<path d="M491 49C491.687 37.7119 492.175 20.6271 493.351 -5C493.017 7.9538 494.288 11.6199 493.939 21.8475C493.557 30.7966 493.351 39.5424 491 49Z" fill="#1F1308"/>
<g filter="url(#filter52_di)">
<path d="M1039.95 93.6271L1041.63 56L1045.62 86.9379C1047.85 90.2373 1049.8 91.1413 1053.4 92.5819L1044.36 91.5367V102.407C1048.75 109.845 1052.69 112.915 1059.29 118.712L1044.36 107.633V117.876C1048.24 123.541 1050.4 125.564 1054.45 129.582C1049.14 126.552 1048.22 127.462 1043.73 122.266V129.582C1051.88 140.703 1054.65 145.573 1063.28 154.458C1055.13 149.691 1050.42 147.355 1044.36 137.525L1045.62 161.774C1056.58 170.669 1062.84 174.627 1074 181.633C1062.81 176.796 1056.47 174.35 1046.25 165.746V173.689C1050.23 178.128 1052.97 179.916 1058.03 182.887C1052.64 182.098 1049.58 181.775 1045.62 177.243L1046.25 204H1039.95V182.887C1029.4 182.591 1023.39 181.243 1012.62 178.497C1023.52 178.986 1029.59 179.168 1039.95 178.497V155.921L1008 154.458C1020.69 153.595 1027.79 153.086 1039.95 151.113L1039.53 145.051C1033.42 146.447 1028.36 145.858 1021.66 145.051C1029 143.946 1034.76 143.533 1039.53 141.079V120.175C1033.84 122.914 1028.57 121.225 1021.66 119.757L1022.03 119.712C1029.51 118.811 1033.82 118.292 1039.95 114.949V98.017L1024.39 102.407C1031.25 99.521 1034.92 97.7802 1039.95 93.6271Z" fill="#7E5A38"/>
<path d="M1039.95 93.6271L1041.63 56L1045.62 86.9379C1047.85 90.2373 1049.8 91.1413 1053.4 92.5819L1044.36 91.5367V102.407C1048.75 109.845 1052.69 112.915 1059.29 118.712L1044.36 107.633V117.876C1048.24 123.541 1050.4 125.564 1054.45 129.582C1049.14 126.552 1048.22 127.462 1043.73 122.266V129.582C1051.88 140.703 1054.65 145.573 1063.28 154.458C1055.13 149.691 1050.42 147.355 1044.36 137.525L1045.62 161.774C1056.58 170.669 1062.84 174.627 1074 181.633C1062.81 176.796 1056.47 174.35 1046.25 165.746V173.689C1050.23 178.128 1052.97 179.916 1058.03 182.887C1052.64 182.098 1049.58 181.775 1045.62 177.243L1046.25 204H1039.95V182.887C1029.4 182.591 1023.39 181.243 1012.62 178.497C1023.52 178.986 1029.59 179.168 1039.95 178.497V155.921L1008 154.458C1020.69 153.595 1027.79 153.086 1039.95 151.113L1039.53 145.051C1033.42 146.447 1028.36 145.858 1021.66 145.051C1029 143.946 1034.76 143.533 1039.53 141.079V120.175C1033.84 122.914 1028.57 121.225 1021.66 119.757L1022.03 119.712C1029.51 118.811 1033.82 118.292 1039.95 114.949V98.017L1024.39 102.407C1031.25 99.521 1034.92 97.7802 1039.95 93.6271Z" fill="url(#paint10_linear)"/>
</g>
<g filter="url(#filter53_i)">
<path d="M1039.95 93.6271L1041.63 56L1045.62 86.9379C1047.85 90.2373 1049.8 91.1413 1053.4 92.5819L1044.36 91.5367V102.407C1048.75 109.845 1052.69 112.915 1059.29 118.712L1044.36 107.633V117.876C1048.24 123.541 1050.4 125.564 1054.45 129.582C1049.14 126.552 1048.22 127.462 1043.73 122.266V129.582C1051.88 140.703 1054.65 145.573 1063.28 154.458C1055.13 149.691 1050.42 147.355 1044.36 137.525L1045.62 161.774C1056.58 170.669 1062.84 174.627 1074 181.633C1062.81 176.796 1056.47 174.35 1046.25 165.746V173.689C1050.23 178.128 1052.97 179.916 1058.03 182.887C1052.64 182.098 1049.58 181.775 1045.62 177.243L1046.25 204H1039.95V182.887C1029.4 182.591 1023.39 181.243 1012.62 178.497C1023.52 178.986 1029.59 179.168 1039.95 178.497V155.921L1008 154.458C1020.69 153.595 1027.79 153.086 1039.95 151.113L1039.53 145.051C1033.42 146.447 1028.36 145.858 1021.66 145.051C1029 143.946 1034.76 143.533 1039.53 141.079V120.175C1033.84 122.914 1028.57 121.225 1021.66 119.757L1022.03 119.712C1029.51 118.811 1033.82 118.292 1039.95 114.949V98.017L1024.39 102.407C1031.25 99.521 1034.92 97.7802 1039.95 93.6271Z" fill="#7E5A38"/>
<path d="M1039.95 93.6271L1041.63 56L1045.62 86.9379C1047.85 90.2373 1049.8 91.1413 1053.4 92.5819L1044.36 91.5367V102.407C1048.75 109.845 1052.69 112.915 1059.29 118.712L1044.36 107.633V117.876C1048.24 123.541 1050.4 125.564 1054.45 129.582C1049.14 126.552 1048.22 127.462 1043.73 122.266V129.582C1051.88 140.703 1054.65 145.573 1063.28 154.458C1055.13 149.691 1050.42 147.355 1044.36 137.525L1045.62 161.774C1056.58 170.669 1062.84 174.627 1074 181.633C1062.81 176.796 1056.47 174.35 1046.25 165.746V173.689C1050.23 178.128 1052.97 179.916 1058.03 182.887C1052.64 182.098 1049.58 181.775 1045.62 177.243L1046.25 204H1039.95V182.887C1029.4 182.591 1023.39 181.243 1012.62 178.497C1023.52 178.986 1029.59 179.168 1039.95 178.497V155.921L1008 154.458C1020.69 153.595 1027.79 153.086 1039.95 151.113L1039.53 145.051C1033.42 146.447 1028.36 145.858 1021.66 145.051C1029 143.946 1034.76 143.533 1039.53 141.079V120.175C1033.84 122.914 1028.57 121.225 1021.66 119.757L1022.03 119.712C1029.51 118.811 1033.82 118.292 1039.95 114.949V98.017L1024.39 102.407C1031.25 99.521 1034.92 97.7802 1039.95 93.6271Z" fill="url(#paint11_linear)"/>
</g>
<path d="M1040 115C1033.57 117.954 1029.53 118.793 1022 119.636C1025.84 120.166 1028 120.135 1031.84 119.425C1036.26 118.204 1037.8 117.135 1040 115Z" fill="#1F1308"/>
<path d="M1039 141C1032.41 143.563 1029.65 142.922 1022 144.631C1025.9 145.168 1028.09 145.137 1031.99 144.417C1036.48 143.18 1036.77 143.164 1039 141Z" fill="#1F1308"/>
<path d="M1024 102C1028.76 100.071 1034.38 97.2857 1040 93C1037.73 95.1712 1037.62 95.7857 1035.24 97.5C1032.65 99 1029.19 100.286 1024 102Z" fill="#1F1308"/>
<path d="M1040 93C1040.46 85.2655 1040.78 73.5593 1041.57 56C1041.34 64.8758 1042.19 67.3877 1041.96 74.3955C1041.7 80.5273 1041.57 86.5198 1040 93Z" fill="#1F1308"/>
<g filter="url(#filter54_di)">
<path d="M902.955 96.4237L905.427 41L911.296 86.5706C914.573 91.4307 917.435 92.7622 922.726 94.8842L909.443 93.3446V109.356C915.886 120.312 921.679 124.834 931.376 133.373L909.443 117.054V132.141C915.147 140.486 918.315 143.466 924.271 149.384C916.461 144.922 915.116 146.262 908.516 138.607V149.384C920.497 165.765 924.557 172.939 937.245 186.025C925.265 179.004 918.344 175.563 909.443 161.085L911.296 196.802C927.399 209.905 936.593 215.734 953 226.054C936.555 218.929 927.234 215.327 912.223 202.653V214.353C918.061 220.891 922.094 223.525 929.522 227.901C921.613 226.739 917.112 226.264 911.296 219.588L912.223 259H902.955V227.901C887.454 227.465 878.612 225.479 862.796 221.435C878.814 222.155 887.732 222.424 902.955 221.435V188.181L856 186.025C874.647 184.755 885.084 184.005 902.955 181.099L902.338 172.169C893.356 174.226 885.928 173.359 876.08 172.169C886.859 170.541 895.336 169.933 902.338 166.319V135.528C893.977 139.563 886.237 137.075 876.08 134.912C887.411 133.543 893.799 132.835 902.955 127.831V102.89L880.096 109.356C890.171 105.105 895.561 102.541 902.955 96.4237Z" fill="#7E5A38"/>
<path d="M902.955 96.4237L905.427 41L911.296 86.5706C914.573 91.4307 917.435 92.7622 922.726 94.8842L909.443 93.3446V109.356C915.886 120.312 921.679 124.834 931.376 133.373L909.443 117.054V132.141C915.147 140.486 918.315 143.466 924.271 149.384C916.461 144.922 915.116 146.262 908.516 138.607V149.384C920.497 165.765 924.557 172.939 937.245 186.025C925.265 179.004 918.344 175.563 909.443 161.085L911.296 196.802C927.399 209.905 936.593 215.734 953 226.054C936.555 218.929 927.234 215.327 912.223 202.653V214.353C918.061 220.891 922.094 223.525 929.522 227.901C921.613 226.739 917.112 226.264 911.296 219.588L912.223 259H902.955V227.901C887.454 227.465 878.612 225.479 862.796 221.435C878.814 222.155 887.732 222.424 902.955 221.435V188.181L856 186.025C874.647 184.755 885.084 184.005 902.955 181.099L902.338 172.169C893.356 174.226 885.928 173.359 876.08 172.169C886.859 170.541 895.336 169.933 902.338 166.319V135.528C893.977 139.563 886.237 137.075 876.08 134.912C887.411 133.543 893.799 132.835 902.955 127.831V102.89L880.096 109.356C890.171 105.105 895.561 102.541 902.955 96.4237Z" fill="url(#paint12_linear)"/>
</g>
<g filter="url(#filter55_i)">
<path d="M902.955 96.4237L905.427 41L911.296 86.5706C914.573 91.4307 917.435 92.7622 922.726 94.8842L909.443 93.3446V109.356C915.886 120.312 921.679 124.834 931.376 133.373L909.443 117.054V132.141C915.147 140.486 918.315 143.466 924.271 149.384C916.461 144.922 915.116 146.262 908.516 138.607V149.384C920.497 165.765 924.557 172.939 937.245 186.025C925.265 179.004 918.344 175.563 909.443 161.085L911.296 196.802C927.399 209.905 936.593 215.734 953 226.054C936.555 218.929 927.234 215.327 912.223 202.653V214.353C918.061 220.891 922.094 223.525 929.522 227.901C921.613 226.739 917.112 226.264 911.296 219.588L912.223 259H902.955V227.901C887.454 227.465 878.612 225.479 862.796 221.435C878.814 222.155 887.732 222.424 902.955 221.435V188.181L856 186.025C874.647 184.755 885.084 184.005 902.955 181.099L902.338 172.169C893.356 174.226 885.928 173.359 876.08 172.169C886.859 170.541 895.336 169.933 902.338 166.319V135.528C893.977 139.563 886.237 137.075 876.08 134.912C887.411 133.543 893.799 132.835 902.955 127.831V102.89L880.096 109.356C890.171 105.105 895.561 102.541 902.955 96.4237Z" fill="#7E5A38"/>
<path d="M902.955 96.4237L905.427 41L911.296 86.5706C914.573 91.4307 917.435 92.7622 922.726 94.8842L909.443 93.3446V109.356C915.886 120.312 921.679 124.834 931.376 133.373L909.443 117.054V132.141C915.147 140.486 918.315 143.466 924.271 149.384C916.461 144.922 915.116 146.262 908.516 138.607V149.384C920.497 165.765 924.557 172.939 937.245 186.025C925.265 179.004 918.344 175.563 909.443 161.085L911.296 196.802C927.399 209.905 936.593 215.734 953 226.054C936.555 218.929 927.234 215.327 912.223 202.653V214.353C918.061 220.891 922.094 223.525 929.522 227.901C921.613 226.739 917.112 226.264 911.296 219.588L912.223 259H902.955V227.901C887.454 227.465 878.612 225.479 862.796 221.435C878.814 222.155 887.732 222.424 902.955 221.435V188.181L856 186.025C874.647 184.755 885.084 184.005 902.955 181.099L902.338 172.169C893.356 174.226 885.928 173.359 876.08 172.169C886.859 170.541 895.336 169.933 902.338 166.319V135.528C893.977 139.563 886.237 137.075 876.08 134.912C887.411 133.543 893.799 132.835 902.955 127.831V102.89L880.096 109.356C890.171 105.105 895.561 102.541 902.955 96.4237Z" fill="url(#paint13_linear)"/>
</g>
<path d="M903 128C893.348 132.136 887.302 133.31 876 134.49C881.763 135.232 884.993 135.19 890.756 134.195C897.386 132.486 899.701 130.989 903 128Z" fill="#1F1308"/>
<path d="M901 167C891.312 170.845 887.25 169.883 876 172.446C881.736 173.252 884.952 173.206 890.688 172.126C897.287 170.27 897.717 170.246 901 167Z" fill="#1F1308"/>
<path d="M880 109C886.838 106.214 894.919 102.19 903 96C899.734 99.1362 899.581 100.024 896.162 102.5C892.432 104.667 887.459 106.524 880 109Z" fill="#1F1308"/>
<path d="M903 96C903.687 84.7119 904.175 67.6271 905.351 42C905.017 54.9538 906.288 58.6199 905.939 68.8475C905.557 77.7966 905.351 86.5424 903 96Z" fill="#1F1308"/>
<g filter="url(#filter56_i)">
<path d="M706.338 154.441L708.197 113L712.615 147.073C715.08 150.707 717.234 151.703 721.217 153.29L711.22 152.138V164.11C716.069 172.302 720.428 175.683 727.726 182.068L711.22 169.866V181.147C715.512 187.386 717.897 189.614 722.379 194.04C716.501 190.703 715.489 191.705 710.522 185.982V194.04C719.539 206.287 722.594 211.651 732.143 221.436C723.128 216.186 717.919 213.614 711.22 202.788L712.615 229.494C724.733 239.291 731.652 243.649 744 251.366C731.624 246.039 724.609 243.345 713.312 233.869V242.617C717.706 247.505 720.74 249.475 726.331 252.747C720.379 251.878 716.991 251.523 712.615 246.531L713.312 276H706.338V252.747C694.672 252.421 688.017 250.936 676.115 247.912C688.169 248.451 694.881 248.652 706.338 247.912V223.048L671 221.436C685.034 220.487 692.888 219.926 706.338 217.753L705.873 211.076C699.114 212.614 693.523 211.965 686.111 211.076C694.224 209.859 700.603 209.404 705.873 206.702V183.679C699.581 186.696 693.756 184.836 686.111 183.219L686.523 183.17C694.795 182.177 699.559 181.605 706.338 177.924V159.275L689.134 164.11C696.716 160.932 700.773 159.015 706.338 154.441Z" fill="#7E5A38"/>
<path d="M706.338 154.441L708.197 113L712.615 147.073C715.08 150.707 717.234 151.703 721.217 153.29L711.22 152.138V164.11C716.069 172.302 720.428 175.683 727.726 182.068L711.22 169.866V181.147C715.512 187.386 717.897 189.614 722.379 194.04C716.501 190.703 715.489 191.705 710.522 185.982V194.04C719.539 206.287 722.594 211.651 732.143 221.436C723.128 216.186 717.919 213.614 711.22 202.788L712.615 229.494C724.733 239.291 731.652 243.649 744 251.366C731.624 246.039 724.609 243.345 713.312 233.869V242.617C717.706 247.505 720.74 249.475 726.331 252.747C720.379 251.878 716.991 251.523 712.615 246.531L713.312 276H706.338V252.747C694.672 252.421 688.017 250.936 676.115 247.912C688.169 248.451 694.881 248.652 706.338 247.912V223.048L671 221.436C685.034 220.487 692.888 219.926 706.338 217.753L705.873 211.076C699.114 212.614 693.523 211.965 686.111 211.076C694.224 209.859 700.603 209.404 705.873 206.702V183.679C699.581 186.696 693.756 184.836 686.111 183.219L686.523 183.17C694.795 182.177 699.559 181.605 706.338 177.924V159.275L689.134 164.11C696.716 160.932 700.773 159.015 706.338 154.441Z" fill="url(#paint14_linear)"/>
</g>
<g filter="url(#filter57_i)">
<path d="M1170 77.5424L1174 0L1183.5 63.7571C1188.8 70.5566 1193.44 72.4196 1202 75.3884L1180.5 73.2345V95.6356C1190.93 110.964 1200.3 117.291 1216 129.237L1180.5 106.405V127.514C1189.73 139.189 1194.86 143.358 1204.5 151.638C1191.86 145.395 1189.68 147.27 1179 136.561V151.638C1198.39 174.556 1204.96 184.593 1225.5 202.903C1206.11 193.079 1194.91 188.265 1180.5 168.008L1183.5 217.98C1209.56 236.312 1224.44 244.467 1251 258.905C1224.38 248.938 1209.3 243.897 1185 226.165V242.535C1194.45 251.682 1200.98 255.367 1213 261.49C1200.2 259.864 1192.91 259.199 1183.5 249.859L1185 305H1170V261.49C1144.91 260.88 1130.6 258.101 1105 252.443C1130.93 253.451 1145.36 253.827 1170 252.443V205.918L1094 202.903C1124.18 201.126 1141.07 200.076 1170 196.01L1169 183.517C1154.46 186.394 1142.44 185.181 1126.5 183.517C1143.95 181.239 1157.67 180.388 1169 175.332V132.253C1155.47 137.898 1142.94 134.417 1126.5 131.391C1144.84 129.475 1155.18 128.485 1170 121.483V86.589L1133 95.6356C1149.31 89.6885 1158.03 86.1011 1170 77.5424Z" fill="#553F2B"/>
<path d="M1170 77.5424L1174 0L1183.5 63.7571C1188.8 70.5566 1193.44 72.4196 1202 75.3884L1180.5 73.2345V95.6356C1190.93 110.964 1200.3 117.291 1216 129.237L1180.5 106.405V127.514C1189.73 139.189 1194.86 143.358 1204.5 151.638C1191.86 145.395 1189.68 147.27 1179 136.561V151.638C1198.39 174.556 1204.96 184.593 1225.5 202.903C1206.11 193.079 1194.91 188.265 1180.5 168.008L1183.5 217.98C1209.56 236.312 1224.44 244.467 1251 258.905C1224.38 248.938 1209.3 243.897 1185 226.165V242.535C1194.45 251.682 1200.98 255.367 1213 261.49C1200.2 259.864 1192.91 259.199 1183.5 249.859L1185 305H1170V261.49C1144.91 260.88 1130.6 258.101 1105 252.443C1130.93 253.451 1145.36 253.827 1170 252.443V205.918L1094 202.903C1124.18 201.126 1141.07 200.076 1170 196.01L1169 183.517C1154.46 186.394 1142.44 185.181 1126.5 183.517C1143.95 181.239 1157.67 180.388 1169 175.332V132.253C1155.47 137.898 1142.94 134.417 1126.5 131.391C1144.84 129.475 1155.18 128.485 1170 121.483V86.589L1133 95.6356C1149.31 89.6885 1158.03 86.1011 1170 77.5424Z" fill="url(#paint15_linear)" fill-opacity="0.8"/>
</g>
</g>
<defs>
<filter id="filter0_f" x="277.428" y="236.952" width="18.6727" height="16.2329" filterUnits="userSpaceOnUse" color-interpolation-filters="sRGB">
<feFlood flood-opacity="0" result="BackgroundImageFix"/>
<feBlend mode="normal" in="SourceGraphic" in2="BackgroundImageFix" result="shape"/>
<feGaussianBlur stdDeviation="1" result="effect1_foregroundBlur"/>
</filter>
<filter id="filter1_f" x="221.088" y="75.4503" width="129.844" height="179.54" filterUnits="userSpaceOnUse" color-interpolation-filters="sRGB">
<feFlood flood-opacity="0" result="BackgroundImageFix"/>
<feBlend mode="normal" in="SourceGraphic" in2="BackgroundImageFix" result="shape"/>
<feGaussianBlur stdDeviation="1" result="effect1_foregroundBlur"/>
</filter>
<filter id="filter2_f" x="239.561" y="150.955" width="39.2229" height="28.5195" filterUnits="userSpaceOnUse" color-interpolation-filters="sRGB">
<feFlood flood-opacity="0" result="BackgroundImageFix"/>
<feBlend mode="normal" in="SourceGraphic" in2="BackgroundImageFix" result="shape"/>
<feGaussianBlur stdDeviation="1" result="effect1_foregroundBlur"/>
</filter>
<filter id="filter3_f" x="225.5" y="180.603" width="48.7955" height="38.0206" filterUnits="userSpaceOnUse" color-interpolation-filters="sRGB">
<feFlood flood-opacity="0" result="BackgroundImageFix"/>
<feBlend mode="normal" in="SourceGraphic" in2="BackgroundImageFix" result="shape"/>
<feGaussianBlur stdDeviation="1" result="effect1_foregroundBlur"/>
</filter>
<filter id="filter4_f" x="221.092" y="219.739" width="40.7898" height="35.2611" filterUnits="userSpaceOnUse" color-interpolation-filters="sRGB">
<feFlood flood-opacity="0" result="BackgroundImageFix"/>
<feBlend mode="normal" in="SourceGraphic" in2="BackgroundImageFix" result="shape"/>
<feGaussianBlur stdDeviation="1" result="effect1_foregroundBlur"/>
</filter>
<filter id="filter5_f" x="247.294" y="122.666" width="34.3803" height="28.4792" filterUnits="userSpaceOnUse" color-interpolation-filters="sRGB">
<feFlood flood-opacity="0" result="BackgroundImageFix"/>
<feBlend mode="normal" in="SourceGraphic" in2="BackgroundImageFix" result="shape"/>
<feGaussianBlur stdDeviation="1" result="effect1_foregroundBlur"/>
</filter>
<filter id="filter6_f" x="261.5" y="75.4561" width="32.5247" height="48.6528" filterUnits="userSpaceOnUse" color-interpolation-filters="sRGB">
<feFlood flood-opacity="0" result="BackgroundImageFix"/>
<feBlend mode="normal" in="SourceGraphic" in2="BackgroundImageFix" result="shape"/>
<feGaussianBlur stdDeviation="1" result="effect1_foregroundBlur"/>
</filter>
<filter id="filter7_di" x="319" y="80" width="69" height="145" filterUnits="userSpaceOnUse" color-interpolation-filters="sRGB">
<feFlood flood-opacity="0" result="BackgroundImageFix"/>
<feColorMatrix in="SourceAlpha" type="matrix" values="0 0 0 0 0 0 0 0 0 0 0 0 0 0 0 0 0 0 127 0"/>
<feOffset dy="4"/>
<feGaussianBlur stdDeviation="2"/>
<feColorMatrix type="matrix" values="0 0 0 0 0 0 0 0 0 0 0 0 0 0 0 0 0 0 0.25 0"/>
<feBlend mode="normal" in2="BackgroundImageFix" result="effect1_dropShadow"/>
<feBlend mode="normal" in="SourceGraphic" in2="effect1_dropShadow" result="shape"/>
<feColorMatrix in="SourceAlpha" type="matrix" values="0 0 0 0 0 0 0 0 0 0 0 0 0 0 0 0 0 0 127 0" result="hardAlpha"/>
<feOffset dy="4"/>
<feGaussianBlur stdDeviation="5"/>
<feComposite in2="hardAlpha" operator="arithmetic" k2="-1" k3="1"/>
<feColorMatrix type="matrix" values="0 0 0 0 0 0 0 0 0 0 0 0 0 0 0 0 0 0 0.5 0"/>
<feBlend mode="normal" in2="shape" result="effect2_innerShadow"/>
</filter>
<filter id="filter8_di" x="125" y="-18" width="105" height="226" filterUnits="userSpaceOnUse" color-interpolation-filters="sRGB">
<feFlood flood-opacity="0" result="BackgroundImageFix"/>
<feColorMatrix in="SourceAlpha" type="matrix" values="0 0 0 0 0 0 0 0 0 0 0 0 0 0 0 0 0 0 127 0"/>
<feOffset dy="4"/>
<feGaussianBlur stdDeviation="2"/>
<feColorMatrix type="matrix" values="0 0 0 0 0 0 0 0 0 0 0 0 0 0 0 0 0 0 0.25 0"/>
<feBlend mode="normal" in2="BackgroundImageFix" result="effect1_dropShadow"/>
<feBlend mode="normal" in="SourceGraphic" in2="effect1_dropShadow" result="shape"/>
<feColorMatrix in="SourceAlpha" type="matrix" values="0 0 0 0 0 0 0 0 0 0 0 0 0 0 0 0 0 0 127 0" result="hardAlpha"/>
<feOffset dy="4"/>
<feGaussianBlur stdDeviation="5"/>
<feComposite in2="hardAlpha" operator="arithmetic" k2="-1" k3="1"/>
<feColorMatrix type="matrix" values="0 0 0 0 0 0 0 0 0 0 0 0 0 0 0 0 0 0 0.5 0"/>
<feBlend mode="normal" in2="shape" result="effect2_innerShadow"/>
</filter>
<filter id="filter9_di" x="1454" y="47" width="74" height="156" filterUnits="userSpaceOnUse" color-interpolation-filters="sRGB">
<feFlood flood-opacity="0" result="BackgroundImageFix"/>
<feColorMatrix in="SourceAlpha" type="matrix" values="0 0 0 0 0 0 0 0 0 0 0 0 0 0 0 0 0 0 127 0"/>
<feOffset dy="4"/>
<feGaussianBlur stdDeviation="2"/>
<feColorMatrix type="matrix" values="0 0 0 0 0 0 0 0 0 0 0 0 0 0 0 0 0 0 0.25 0"/>
<feBlend mode="normal" in2="BackgroundImageFix" result="effect1_dropShadow"/>
<feBlend mode="normal" in="SourceGraphic" in2="effect1_dropShadow" result="shape"/>
<feColorMatrix in="SourceAlpha" type="matrix" values="0 0 0 0 0 0 0 0 0 0 0 0 0 0 0 0 0 0 127 0" result="hardAlpha"/>
<feOffset dy="4"/>
<feGaussianBlur stdDeviation="5"/>
<feComposite in2="hardAlpha" operator="arithmetic" k2="-1" k3="1"/>
<feColorMatrix type="matrix" values="0 0 0 0 0 0 0 0 0 0 0 0 0 0 0 0 0 0 0.5 0"/>
<feBlend mode="normal" in2="shape" result="effect2_innerShadow"/>
</filter>
<filter id="filter10_di" x="1454" y="47" width="74" height="156" filterUnits="userSpaceOnUse" color-interpolation-filters="sRGB">
<feFlood flood-opacity="0" result="BackgroundImageFix"/>
<feColorMatrix in="SourceAlpha" type="matrix" values="0 0 0 0 0 0 0 0 0 0 0 0 0 0 0 0 0 0 127 0"/>
<feOffset dy="4"/>
<feGaussianBlur stdDeviation="2"/>
<feColorMatrix type="matrix" values="0 0 0 0 0 0 0 0 0 0 0 0 0 0 0 0 0 0 0.25 0"/>
<feBlend mode="normal" in2="BackgroundImageFix" result="effect1_dropShadow"/>
<feBlend mode="normal" in="SourceGraphic" in2="effect1_dropShadow" result="shape"/>
<feColorMatrix in="SourceAlpha" type="matrix" values="0 0 0 0 0 0 0 0 0 0 0 0 0 0 0 0 0 0 127 0" result="hardAlpha"/>
<feOffset dy="4"/>
<feGaussianBlur stdDeviation="5"/>
<feComposite in2="hardAlpha" operator="arithmetic" k2="-1" k3="1"/>
<feColorMatrix type="matrix" values="0 0 0 0 0 0 0 0 0 0 0 0 0 0 0 0 0 0 0.5 0"/>
<feBlend mode="normal" in2="shape" result="effect2_innerShadow"/>
</filter>
<filter id="filter11_f" x="397.428" y="249.952" width="18.6727" height="16.2329" filterUnits="userSpaceOnUse" color-interpolation-filters="sRGB">
<feFlood flood-opacity="0" result="BackgroundImageFix"/>
<feBlend mode="normal" in="SourceGraphic" in2="BackgroundImageFix" result="shape"/>
<feGaussianBlur stdDeviation="1" result="effect1_foregroundBlur"/>
</filter>
<filter id="filter12_f" x="86.2729" y="239.646" width="25.6651" height="21.7238" filterUnits="userSpaceOnUse" color-interpolation-filters="sRGB">
<feFlood flood-opacity="0" result="BackgroundImageFix"/>
<feBlend mode="normal" in="SourceGraphic" in2="BackgroundImageFix" result="shape"/>
<feGaussianBlur stdDeviation="1" result="effect1_foregroundBlur"/>
</filter>
<filter id="filter13_f" x="3.08331" y="5.65249" width="189.816" height="258.334" filterUnits="userSpaceOnUse" color-interpolation-filters="sRGB">
<feFlood flood-opacity="0" result="BackgroundImageFix"/>
<feBlend mode="normal" in="SourceGraphic" in2="BackgroundImageFix" result="shape"/>
<feGaussianBlur stdDeviation="1" result="effect1_foregroundBlur"/>
</filter>
<filter id="filter14_f" x="30.36" y="115.048" width="56.0088" height="39.5254" filterUnits="userSpaceOnUse" color-interpolation-filters="sRGB">
<feFlood flood-opacity="0" result="BackgroundImageFix"/>
<feBlend mode="normal" in="SourceGraphic" in2="BackgroundImageFix" result="shape"/>
<feGaussianBlur stdDeviation="1" result="effect1_foregroundBlur"/>
</filter>
<filter id="filter15_f" x="9.59772" y="158.004" width="70.1433" height="53.2911" filterUnits="userSpaceOnUse" color-interpolation-filters="sRGB">
<feFlood flood-opacity="0" result="BackgroundImageFix"/>
<feBlend mode="normal" in="SourceGraphic" in2="BackgroundImageFix" result="shape"/>
<feGaussianBlur stdDeviation="1" result="effect1_foregroundBlur"/>
</filter>
<filter id="filter16_f" x="3.08887" y="214.707" width="58.3225" height="49.2931" filterUnits="userSpaceOnUse" color-interpolation-filters="sRGB">
<feFlood flood-opacity="0" result="BackgroundImageFix"/>
<feBlend mode="normal" in="SourceGraphic" in2="BackgroundImageFix" result="shape"/>
<feGaussianBlur stdDeviation="1" result="effect1_foregroundBlur"/>
</filter>
<filter id="filter17_f" x="41.7783" y="74.062" width="48.8584" height="39.4671" filterUnits="userSpaceOnUse" color-interpolation-filters="sRGB">
<feFlood flood-opacity="0" result="BackgroundImageFix"/>
<feBlend mode="normal" in="SourceGraphic" in2="BackgroundImageFix" result="shape"/>
<feGaussianBlur stdDeviation="1" result="effect1_foregroundBlur"/>
</filter>
<filter id="filter18_f" x="62.7544" y="5.66084" width="46.1185" height="68.6958" filterUnits="userSpaceOnUse" color-interpolation-filters="sRGB">
<feFlood flood-opacity="0" result="BackgroundImageFix"/>
<feBlend mode="normal" in="SourceGraphic" in2="BackgroundImageFix" result="shape"/>
<feGaussianBlur stdDeviation="1" result="effect1_foregroundBlur"/>
</filter>
<filter id="filter19_i" x="106" y="35" width="197" height="288" filterUnits="userSpaceOnUse" color-interpolation-filters="sRGB">
<feFlood flood-opacity="0" result="BackgroundImageFix"/>
<feBlend mode="normal" in="SourceGraphic" in2="BackgroundImageFix" result="shape"/>
<feColorMatrix in="SourceAlpha" type="matrix" values="0 0 0 0 0 0 0 0 0 0 0 0 0 0 0 0 0 0 127 0" result="hardAlpha"/>
<feOffset dy="4"/>
<feGaussianBlur stdDeviation="4"/>
<feComposite in2="hardAlpha" operator="arithmetic" k2="-1" k3="1"/>
<feColorMatrix type="matrix" values="0 0 0 0 0 0 0 0 0 0 0 0 0 0 0 0 0 0 0.5 0"/>
<feBlend mode="normal" in2="shape" result="effect1_innerShadow"/>
</filter>
<filter id="filter20_f" x="1422.63" y="259.941" width="23.143" height="20.5957" filterUnits="userSpaceOnUse" color-interpolation-filters="sRGB">
<feFlood flood-opacity="0" result="BackgroundImageFix"/>
<feBlend mode="normal" in="SourceGraphic" in2="BackgroundImageFix" result="shape"/>
<feGaussianBlur stdDeviation="1" result="effect1_foregroundBlur"/>
</filter>
<filter id="filter21_i" x="720" y="-9" width="97" height="222" filterUnits="userSpaceOnUse" color-interpolation-filters="sRGB">
<feFlood flood-opacity="0" result="BackgroundImageFix"/>
<feBlend mode="normal" in="SourceGraphic" in2="BackgroundImageFix" result="shape"/>
<feColorMatrix in="SourceAlpha" type="matrix" values="0 0 0 0 0 0 0 0 0 0 0 0 0 0 0 0 0 0 127 0" result="hardAlpha"/>
<feOffset dy="4"/>
<feGaussianBlur stdDeviation="5"/>
<feComposite in2="hardAlpha" operator="arithmetic" k2="-1" k3="1"/>
<feColorMatrix type="matrix" values="0 0 0 0 0 0 0 0 0 0 0 0 0 0 0 0 0 0 0.5 0"/>
<feBlend mode="normal" in2="shape" result="effect1_innerShadow"/>
</filter>
<filter id="filter22_f" x="620.428" y="202.952" width="18.6727" height="16.2329" filterUnits="userSpaceOnUse" color-interpolation-filters="sRGB">
<feFlood flood-opacity="0" result="BackgroundImageFix"/>
<feBlend mode="normal" in="SourceGraphic" in2="BackgroundImageFix" result="shape"/>
<feGaussianBlur stdDeviation="1" result="effect1_foregroundBlur"/>
</filter>
<filter id="filter23_f" x="565.088" y="42.4503" width="127.844" height="177.54" filterUnits="userSpaceOnUse" color-interpolation-filters="sRGB">
<feFlood flood-opacity="0" result="BackgroundImageFix"/>
<feBlend mode="normal" in="SourceGraphic" in2="BackgroundImageFix" result="shape"/>
<feGaussianBlur stdDeviation="0.5" result="effect1_foregroundBlur"/>
</filter>
<filter id="filter24_f" x="582.561" y="116.955" width="39.2229" height="28.5195" filterUnits="userSpaceOnUse" color-interpolation-filters="sRGB">
<feFlood flood-opacity="0" result="BackgroundImageFix"/>
<feBlend mode="normal" in="SourceGraphic" in2="BackgroundImageFix" result="shape"/>
<feGaussianBlur stdDeviation="1" result="effect1_foregroundBlur"/>
</filter>
<filter id="filter25_f" x="568.5" y="146.603" width="48.7955" height="38.0206" filterUnits="userSpaceOnUse" color-interpolation-filters="sRGB">
<feFlood flood-opacity="0" result="BackgroundImageFix"/>
<feBlend mode="normal" in="SourceGraphic" in2="BackgroundImageFix" result="shape"/>
<feGaussianBlur stdDeviation="1" result="effect1_foregroundBlur"/>
</filter>
<filter id="filter26_f" x="565.092" y="186.739" width="38.7898" height="33.2611" filterUnits="userSpaceOnUse" color-interpolation-filters="sRGB">
<feFlood flood-opacity="0" result="BackgroundImageFix"/>
<feBlend mode="normal" in="SourceGraphic" in2="BackgroundImageFix" result="shape"/>
<feGaussianBlur stdDeviation="0.5" result="effect1_foregroundBlur"/>
</filter>
<filter id="filter27_f" x="590.294" y="88.6663" width="34.3803" height="28.4792" filterUnits="userSpaceOnUse" color-interpolation-filters="sRGB">
<feFlood flood-opacity="0" result="BackgroundImageFix"/>
<feBlend mode="normal" in="SourceGraphic" in2="BackgroundImageFix" result="shape"/>
<feGaussianBlur stdDeviation="1" result="effect1_foregroundBlur"/>
</filter>
<filter id="filter28_f" x="604.5" y="41.4561" width="32.5247" height="48.6528" filterUnits="userSpaceOnUse" color-interpolation-filters="sRGB">
<feFlood flood-opacity="0" result="BackgroundImageFix"/>
<feBlend mode="normal" in="SourceGraphic" in2="BackgroundImageFix" result="shape"/>
<feGaussianBlur stdDeviation="1" result="effect1_foregroundBlur"/>
</filter>
<filter id="filter29_f" x="1273.06" y="182.242" width="19.0712" height="16.8258" filterUnits="userSpaceOnUse" color-interpolation-filters="sRGB">
<feFlood flood-opacity="0" result="BackgroundImageFix"/>
<feBlend mode="normal" in="SourceGraphic" in2="BackgroundImageFix" result="shape"/>
<feGaussianBlur stdDeviation="1" result="effect1_foregroundBlur"/>
</filter>
<filter id="filter30_f" x="1224.48" y="21.0541" width="123.632" height="178.556" filterUnits="userSpaceOnUse" color-interpolation-filters="sRGB">
<feFlood flood-opacity="0" result="BackgroundImageFix"/>
<feBlend mode="normal" in="SourceGraphic" in2="BackgroundImageFix" result="shape"/>
<feGaussianBlur stdDeviation="1" result="effect1_foregroundBlur"/>
</filter>
<filter id="filter31_f" x="1297.34" y="97.5299" width="37.317" height="31.0525" filterUnits="userSpaceOnUse" color-interpolation-filters="sRGB">
<feFlood flood-opacity="0" result="BackgroundImageFix"/>
<feBlend mode="normal" in="SourceGraphic" in2="BackgroundImageFix" result="shape"/>
<feGaussianBlur stdDeviation="1" result="effect1_foregroundBlur"/>
</filter>
<filter id="filter32_f" x="1299.63" y="127.428" width="46.1621" height="41.2342" filterUnits="userSpaceOnUse" color-interpolation-filters="sRGB">
<feFlood flood-opacity="0" result="BackgroundImageFix"/>
<feBlend mode="normal" in="SourceGraphic" in2="BackgroundImageFix" result="shape"/>
<feGaussianBlur stdDeviation="1" result="effect1_foregroundBlur"/>
</filter>
<filter id="filter33_f" x="1308.79" y="167.383" width="38.7115" height="29.9473" filterUnits="userSpaceOnUse" color-interpolation-filters="sRGB">
<feFlood flood-opacity="0" result="BackgroundImageFix"/>
<feBlend mode="normal" in="SourceGraphic" in2="BackgroundImageFix" result="shape"/>
<feGaussianBlur stdDeviation="1" result="effect1_foregroundBlur"/>
</filter>
<filter id="filter34_f" x="1296.55" y="69.1051" width="32.4914" height="30.6549" filterUnits="userSpaceOnUse" color-interpolation-filters="sRGB">
<feFlood flood-opacity="0" result="BackgroundImageFix"/>
<feBlend mode="normal" in="SourceGraphic" in2="BackgroundImageFix" result="shape"/>
<feGaussianBlur stdDeviation="1" result="effect1_foregroundBlur"/>
</filter>
<filter id="filter35_f" x="1287.72" y="21.1121" width="29.1509" height="50.6364" filterUnits="userSpaceOnUse" color-interpolation-filters="sRGB">
<feFlood flood-opacity="0" result="BackgroundImageFix"/>
<feBlend mode="normal" in="SourceGraphic" in2="BackgroundImageFix" result="shape"/>
<feGaussianBlur stdDeviation="1" result="effect1_foregroundBlur"/>
</filter>
<filter id="filter36_f" x="1684.9" y="229.952" width="18.6727" height="16.2329" filterUnits="userSpaceOnUse" color-interpolation-filters="sRGB">
<feFlood flood-opacity="0" result="BackgroundImageFix"/>
<feBlend mode="normal" in="SourceGraphic" in2="BackgroundImageFix" result="shape"/>
<feGaussianBlur stdDeviation="1" result="effect1_foregroundBlur"/>
</filter>
<filter id="filter37_f" x="1630.07" y="68.4503" width="129.844" height="179.54" filterUnits="userSpaceOnUse" color-interpolation-filters="sRGB">
<feFlood flood-opacity="0" result="BackgroundImageFix"/>
<feBlend mode="normal" in="SourceGraphic" in2="BackgroundImageFix" result="shape"/>
<feGaussianBlur stdDeviation="1" result="effect1_foregroundBlur"/>
</filter>
<filter id="filter38_f" x="1702.22" y="143.955" width="39.2229" height="28.5195" filterUnits="userSpaceOnUse" color-interpolation-filters="sRGB">
<feFlood flood-opacity="0" result="BackgroundImageFix"/>
<feBlend mode="normal" in="SourceGraphic" in2="BackgroundImageFix" result="shape"/>
<feGaussianBlur stdDeviation="1" result="effect1_foregroundBlur"/>
</filter>
<filter id="filter39_f" x="1706.7" y="173.603" width="48.7955" height="38.0206" filterUnits="userSpaceOnUse" color-interpolation-filters="sRGB">
<feFlood flood-opacity="0" result="BackgroundImageFix"/>
<feBlend mode="normal" in="SourceGraphic" in2="BackgroundImageFix" result="shape"/>
<feGaussianBlur stdDeviation="1" result="effect1_foregroundBlur"/>
</filter>
<filter id="filter40_f" x="1719.12" y="212.739" width="40.7898" height="35.2611" filterUnits="userSpaceOnUse" color-interpolation-filters="sRGB">
<feFlood flood-opacity="0" result="BackgroundImageFix"/>
<feBlend mode="normal" in="SourceGraphic" in2="BackgroundImageFix" result="shape"/>
<feGaussianBlur stdDeviation="1" result="effect1_foregroundBlur"/>
</filter>
<filter id="filter41_f" x="1699.33" y="115.666" width="34.3803" height="28.4792" filterUnits="userSpaceOnUse" color-interpolation-filters="sRGB">
<feFlood flood-opacity="0" result="BackgroundImageFix"/>
<feBlend mode="normal" in="SourceGraphic" in2="BackgroundImageFix" result="shape"/>
<feGaussianBlur stdDeviation="1" result="effect1_foregroundBlur"/>
</filter>
<filter id="filter42_f" x="1686.98" y="68.4561" width="32.5247" height="48.6528" filterUnits="userSpaceOnUse" color-interpolation-filters="sRGB">
<feFlood flood-opacity="0" result="BackgroundImageFix"/>
<feBlend mode="normal" in="SourceGraphic" in2="BackgroundImageFix" result="shape"/>
<feGaussianBlur stdDeviation="1" result="effect1_foregroundBlur"/>
</filter>
<filter id="filter43_f" x="1542.9" y="186.952" width="18.6727" height="16.2329" filterUnits="userSpaceOnUse" color-interpolation-filters="sRGB">
<feFlood flood-opacity="0" result="BackgroundImageFix"/>
<feBlend mode="normal" in="SourceGraphic" in2="BackgroundImageFix" result="shape"/>
<feGaussianBlur stdDeviation="1" result="effect1_foregroundBlur"/>
</filter>
<filter id="filter44_f" x="1488.07" y="25.4503" width="129.844" height="179.54" filterUnits="userSpaceOnUse" color-interpolation-filters="sRGB">
<feFlood flood-opacity="0" result="BackgroundImageFix"/>
<feBlend mode="normal" in="SourceGraphic" in2="BackgroundImageFix" result="shape"/>
<feGaussianBlur stdDeviation="1" result="effect1_foregroundBlur"/>
</filter>
<filter id="filter45_f" x="1560.22" y="100.955" width="39.2229" height="28.5195" filterUnits="userSpaceOnUse" color-interpolation-filters="sRGB">
<feFlood flood-opacity="0" result="BackgroundImageFix"/>
<feBlend mode="normal" in="SourceGraphic" in2="BackgroundImageFix" result="shape"/>
<feGaussianBlur stdDeviation="1" result="effect1_foregroundBlur"/>
</filter>
<filter id="filter46_f" x="1564.7" y="130.603" width="48.7955" height="38.0206" filterUnits="userSpaceOnUse" color-interpolation-filters="sRGB">
<feFlood flood-opacity="0" result="BackgroundImageFix"/>
<feBlend mode="normal" in="SourceGraphic" in2="BackgroundImageFix" result="shape"/>
<feGaussianBlur stdDeviation="1" result="effect1_foregroundBlur"/>
</filter>
<filter id="filter47_f" x="1577.12" y="169.739" width="40.7898" height="35.2611" filterUnits="userSpaceOnUse" color-interpolation-filters="sRGB">
<feFlood flood-opacity="0" result="BackgroundImageFix"/>
<feBlend mode="normal" in="SourceGraphic" in2="BackgroundImageFix" result="shape"/>
<feGaussianBlur stdDeviation="1" result="effect1_foregroundBlur"/>
</filter>
<filter id="filter48_f" x="1557.33" y="72.6663" width="34.3803" height="28.4792" filterUnits="userSpaceOnUse" color-interpolation-filters="sRGB">
<feFlood flood-opacity="0" result="BackgroundImageFix"/>
<feBlend mode="normal" in="SourceGraphic" in2="BackgroundImageFix" result="shape"/>
<feGaussianBlur stdDeviation="1" result="effect1_foregroundBlur"/>
</filter>
<filter id="filter49_f" x="1544.97" y="25.4561" width="32.5247" height="48.6528" filterUnits="userSpaceOnUse" color-interpolation-filters="sRGB">
<feFlood flood-opacity="0" result="BackgroundImageFix"/>
<feBlend mode="normal" in="SourceGraphic" in2="BackgroundImageFix" result="shape"/>
<feGaussianBlur stdDeviation="1" result="effect1_foregroundBlur"/>
</filter>
<filter id="filter50_di" x="440" y="-6" width="105" height="226" filterUnits="userSpaceOnUse" color-interpolation-filters="sRGB">
<feFlood flood-opacity="0" result="BackgroundImageFix"/>
<feColorMatrix in="SourceAlpha" type="matrix" values="0 0 0 0 0 0 0 0 0 0 0 0 0 0 0 0 0 0 127 0"/>
<feOffset dy="4"/>
<feGaussianBlur stdDeviation="2"/>
<feColorMatrix type="matrix" values="0 0 0 0 0 0 0 0 0 0 0 0 0 0 0 0 0 0 0.25 0"/>
<feBlend mode="normal" in2="BackgroundImageFix" result="effect1_dropShadow"/>
<feBlend mode="normal" in="SourceGraphic" in2="effect1_dropShadow" result="shape"/>
<feColorMatrix in="SourceAlpha" type="matrix" values="0 0 0 0 0 0 0 0 0 0 0 0 0 0 0 0 0 0 127 0" result="hardAlpha"/>
<feOffset dy="4"/>
<feGaussianBlur stdDeviation="5"/>
<feComposite in2="hardAlpha" operator="arithmetic" k2="-1" k3="1"/>
<feColorMatrix type="matrix" values="0 0 0 0 0 0 0 0 0 0 0 0 0 0 0 0 0 0 0.5 0"/>
<feBlend mode="normal" in2="shape" result="effect2_innerShadow"/>
</filter>
<filter id="filter51_i" x="444" y="-6" width="97" height="222" filterUnits="userSpaceOnUse" color-interpolation-filters="sRGB">
<feFlood flood-opacity="0" result="BackgroundImageFix"/>
<feBlend mode="normal" in="SourceGraphic" in2="BackgroundImageFix" result="shape"/>
<feColorMatrix in="SourceAlpha" type="matrix" values="0 0 0 0 0 0 0 0 0 0 0 0 0 0 0 0 0 0 127 0" result="hardAlpha"/>
<feOffset dy="4"/>
<feGaussianBlur stdDeviation="5"/>
<feComposite in2="hardAlpha" operator="arithmetic" k2="-1" k3="1"/>
<feColorMatrix type="matrix" values="0 0 0 0 0 0 0 0 0 0 0 0 0 0 0 0 0 0 0.5 0"/>
<feBlend mode="normal" in2="shape" result="effect1_innerShadow"/>
</filter>
<filter id="filter52_di" x="1004" y="56" width="74" height="156" filterUnits="userSpaceOnUse" color-interpolation-filters="sRGB">
<feFlood flood-opacity="0" result="BackgroundImageFix"/>
<feColorMatrix in="SourceAlpha" type="matrix" values="0 0 0 0 0 0 0 0 0 0 0 0 0 0 0 0 0 0 127 0"/>
<feOffset dy="4"/>
<feGaussianBlur stdDeviation="2"/>
<feColorMatrix type="matrix" values="0 0 0 0 0 0 0 0 0 0 0 0 0 0 0 0 0 0 0.25 0"/>
<feBlend mode="normal" in2="BackgroundImageFix" result="effect1_dropShadow"/>
<feBlend mode="normal" in="SourceGraphic" in2="effect1_dropShadow" result="shape"/>
<feColorMatrix in="SourceAlpha" type="matrix" values="0 0 0 0 0 0 0 0 0 0 0 0 0 0 0 0 0 0 127 0" result="hardAlpha"/>
<feOffset dy="4"/>
<feGaussianBlur stdDeviation="5"/>
<feComposite in2="hardAlpha" operator="arithmetic" k2="-1" k3="1"/>
<feColorMatrix type="matrix" values="0 0 0 0 0 0 0 0 0 0 0 0 0 0 0 0 0 0 0.5 0"/>
<feBlend mode="normal" in2="shape" result="effect2_innerShadow"/>
</filter>
<filter id="filter53_i" x="1008" y="56" width="66" height="152" filterUnits="userSpaceOnUse" color-interpolation-filters="sRGB">
<feFlood flood-opacity="0" result="BackgroundImageFix"/>
<feBlend mode="normal" in="SourceGraphic" in2="BackgroundImageFix" result="shape"/>
<feColorMatrix in="SourceAlpha" type="matrix" values="0 0 0 0 0 0 0 0 0 0 0 0 0 0 0 0 0 0 127 0" result="hardAlpha"/>
<feOffset dy="4"/>
<feGaussianBlur stdDeviation="5"/>
<feComposite in2="hardAlpha" operator="arithmetic" k2="-1" k3="1"/>
<feColorMatrix type="matrix" values="0 0 0 0 0 0 0 0 0 0 0 0 0 0 0 0 0 0 0.5 0"/>
<feBlend mode="normal" in2="shape" result="effect1_innerShadow"/>
</filter>
<filter id="filter54_di" x="852" y="41" width="105" height="226" filterUnits="userSpaceOnUse" color-interpolation-filters="sRGB">
<feFlood flood-opacity="0" result="BackgroundImageFix"/>
<feColorMatrix in="SourceAlpha" type="matrix" values="0 0 0 0 0 0 0 0 0 0 0 0 0 0 0 0 0 0 127 0"/>
<feOffset dy="4"/>
<feGaussianBlur stdDeviation="2"/>
<feColorMatrix type="matrix" values="0 0 0 0 0 0 0 0 0 0 0 0 0 0 0 0 0 0 0.25 0"/>
<feBlend mode="normal" in2="BackgroundImageFix" result="effect1_dropShadow"/>
<feBlend mode="normal" in="SourceGraphic" in2="effect1_dropShadow" result="shape"/>
<feColorMatrix in="SourceAlpha" type="matrix" values="0 0 0 0 0 0 0 0 0 0 0 0 0 0 0 0 0 0 127 0" result="hardAlpha"/>
<feOffset dy="4"/>
<feGaussianBlur stdDeviation="5"/>
<feComposite in2="hardAlpha" operator="arithmetic" k2="-1" k3="1"/>
<feColorMatrix type="matrix" values="0 0 0 0 0 0 0 0 0 0 0 0 0 0 0 0 0 0 0.5 0"/>
<feBlend mode="normal" in2="shape" result="effect2_innerShadow"/>
</filter>
<filter id="filter55_i" x="856" y="41" width="97" height="222" filterUnits="userSpaceOnUse" color-interpolation-filters="sRGB">
<feFlood flood-opacity="0" result="BackgroundImageFix"/>
<feBlend mode="normal" in="SourceGraphic" in2="BackgroundImageFix" result="shape"/>
<feColorMatrix in="SourceAlpha" type="matrix" values="0 0 0 0 0 0 0 0 0 0 0 0 0 0 0 0 0 0 127 0" result="hardAlpha"/>
<feOffset dy="4"/>
<feGaussianBlur stdDeviation="5"/>
<feComposite in2="hardAlpha" operator="arithmetic" k2="-1" k3="1"/>
<feColorMatrix type="matrix" values="0 0 0 0 0 0 0 0 0 0 0 0 0 0 0 0 0 0 0.5 0"/>
<feBlend mode="normal" in2="shape" result="effect1_innerShadow"/>
</filter>
<filter id="filter56_i" x="671" y="113" width="73" height="167" filterUnits="userSpaceOnUse" color-interpolation-filters="sRGB">
<feFlood flood-opacity="0" result="BackgroundImageFix"/>
<feBlend mode="normal" in="SourceGraphic" in2="BackgroundImageFix" result="shape"/>
<feColorMatrix in="SourceAlpha" type="matrix" values="0 0 0 0 0 0 0 0 0 0 0 0 0 0 0 0 0 0 127 0" result="hardAlpha"/>
<feOffset dy="4"/>
<feGaussianBlur stdDeviation="5"/>
<feComposite in2="hardAlpha" operator="arithmetic" k2="-1" k3="1"/>
<feColorMatrix type="matrix" values="0 0 0 0 0 0 0 0 0 0 0 0 0 0 0 0 0 0 0.5 0"/>
<feBlend mode="normal" in2="shape" result="effect1_innerShadow"/>
</filter>
<filter id="filter57_i" x="1094" y="0" width="157" height="309" filterUnits="userSpaceOnUse" color-interpolation-filters="sRGB">
<feFlood flood-opacity="0" result="BackgroundImageFix"/>
<feBlend mode="normal" in="SourceGraphic" in2="BackgroundImageFix" result="shape"/>
<feColorMatrix in="SourceAlpha" type="matrix" values="0 0 0 0 0 0 0 0 0 0 0 0 0 0 0 0 0 0 127 0" result="hardAlpha"/>
<feOffset dy="4"/>
<feGaussianBlur stdDeviation="5"/>
<feComposite in2="hardAlpha" operator="arithmetic" k2="-1" k3="1"/>
<feColorMatrix type="matrix" values="0 0 0 0 0 0 0 0 0 0 0 0 0 0 0 0 0 0 0.5 0"/>
<feBlend mode="normal" in2="shape" result="effect1_innerShadow"/>
</filter>
<linearGradient id="paint0_linear" x1="403.495" y1="158.241" x2="305.706" y2="156.668" gradientUnits="userSpaceOnUse">
<stop/>
<stop offset="0.807292" stop-color="#100905" stop-opacity="0"/>
</linearGradient>
<linearGradient id="paint1_linear" x1="257" y1="106.5" x2="101.5" y2="104" gradientUnits="userSpaceOnUse">
<stop/>
<stop offset="0.807292" stop-color="#100905" stop-opacity="0"/>
</linearGradient>
<linearGradient id="paint2_linear" x1="1545.09" y1="131.523" x2="1439.29" y2="129.818" gradientUnits="userSpaceOnUse">
<stop/>
<stop offset="0.807292" stop-color="#100905" stop-opacity="0"/>
</linearGradient>
<linearGradient id="paint3_linear" x1="1545.09" y1="131.523" x2="1439.29" y2="129.818" gradientUnits="userSpaceOnUse">
<stop/>
<stop offset="0.807292" stop-color="#100905" stop-opacity="0"/>
</linearGradient>
<linearGradient id="paint4_linear" x1="447" y1="220" x2="396.586" y2="196.316" gradientUnits="userSpaceOnUse">
<stop stop-color="#652E2E"/>
<stop offset="1" stop-color="#89982B" stop-opacity="0.25"/>
</linearGradient>
<linearGradient id="paint5_linear" x1="299.823" y1="177" x2="27.1925" y2="196.441" gradientUnits="userSpaceOnUse">
<stop stop-color="#BC1B1B"/>
<stop offset="0.411458" stop-color="#BCBE38" stop-opacity="0.18"/>
<stop offset="0.953158" stop-color="#BCBE38" stop-opacity="0.18"/>
</linearGradient>
<linearGradient id="paint6_linear" x1="1314" y1="265" x2="1459.12" y2="155.999" gradientUnits="userSpaceOnUse">
<stop stop-color="#E10C0C"/>
<stop offset="1" stop-color="#C2BC24" stop-opacity="0.32"/>
</linearGradient>
<linearGradient id="paint7_linear" x1="1216" y1="219" x2="1367.51" y2="85.4477" gradientUnits="userSpaceOnUse">
<stop stop-color="#FF0101"/>
<stop offset="1" stop-color="#D7DB08" stop-opacity="0.4"/>
</linearGradient>
<linearGradient id="paint8_linear" x1="572" y1="118.5" x2="416.5" y2="116" gradientUnits="userSpaceOnUse">
<stop/>
<stop offset="0.807292" stop-color="#100905" stop-opacity="0"/>
</linearGradient>
<linearGradient id="paint9_linear" x1="572" y1="118.5" x2="416.5" y2="116" gradientUnits="userSpaceOnUse">
<stop/>
<stop offset="0.807292" stop-color="#100905" stop-opacity="0"/>
</linearGradient>
<linearGradient id="paint10_linear" x1="1095.09" y1="140.523" x2="989.289" y2="138.818" gradientUnits="userSpaceOnUse">
<stop/>
<stop offset="0.807292" stop-color="#100905" stop-opacity="0"/>
</linearGradient>
<linearGradient id="paint11_linear" x1="1095.09" y1="140.523" x2="989.289" y2="138.818" gradientUnits="userSpaceOnUse">
<stop/>
<stop offset="0.807292" stop-color="#100905" stop-opacity="0"/>
</linearGradient>
<linearGradient id="paint12_linear" x1="984" y1="165.5" x2="828.5" y2="163" gradientUnits="userSpaceOnUse">
<stop/>
<stop offset="0.807292" stop-color="#100905" stop-opacity="0"/>
</linearGradient>
<linearGradient id="paint13_linear" x1="984" y1="165.5" x2="828.5" y2="163" gradientUnits="userSpaceOnUse">
<stop/>
<stop offset="0.807292" stop-color="#100905" stop-opacity="0"/>
</linearGradient>
<linearGradient id="paint14_linear" x1="767.33" y1="206.089" x2="650.305" y2="204.196" gradientUnits="userSpaceOnUse">
<stop/>
<stop offset="0.807292" stop-color="#100905" stop-opacity="0"/>
</linearGradient>
<linearGradient id="paint15_linear" x1="1129" y1="286.045" x2="1166.72" y2="155.137" gradientUnits="userSpaceOnUse">
<stop stop-color="#A9371E" stop-opacity="0.66"/>
<stop offset="1" stop-color="#231104" stop-opacity="0"/>
</linearGradient>
<clipPath id="clip0">
<rect width="1762" height="398" fill="white"/>
</clipPath>
<clipPath id="clip1">
<rect x="219" y="77" width="130" height="183" fill="white"/>
</clipPath>
<clipPath id="clip2">
<rect x="292" y="12" width="91" height="232" fill="white"/>
</clipPath>
<clipPath id="clip3">
<rect x="339" y="90" width="130" height="183" fill="white"/>
</clipPath>
<clipPath id="clip4">
<rect y="7" width="191" height="280" fill="white"/>
</clipPath>
<clipPath id="clip5">
<rect width="174" height="245" transform="matrix(-1 0 0 1 1522 42)" fill="white"/>
</clipPath>
<clipPath id="clip6">
<rect x="726" y="-9" width="91" height="232" fill="white"/>
</clipPath>
<clipPath id="clip7">
<rect x="562" y="43" width="130" height="183" fill="white"/>
</clipPath>
<clipPath id="clip8">
<rect width="130" height="183" transform="matrix(-0.997272 -0.0738122 -0.0738122 0.997272 1362.58 28.0474)" fill="white"/>
</clipPath>
<clipPath id="clip9">
<rect width="130" height="183" transform="matrix(-1 0 0 1 1762 70)" fill="white"/>
</clipPath>
<clipPath id="clip10">
<rect width="130" height="183" transform="matrix(-1 0 0 1 1620 27)" fill="white"/>
</clipPath>
</defs>
</svg>
